
<svg width="60" height="60" viewBox="0 0 60 60" xmlns="http://www.w3.org/2000/svg">
  <g fill="none" fill-rule="evenodd">
    <g stroke="#9BA3AF" stroke-width="0.5" stroke-opacity="0.15">
      <path d="M36 34v-4h-2v4h-4v2h4v4h2v-4h4v-2h-4zm0-30v12h12M34 4h12M4 36v12h12M6 46h12M27 4v12M38 6H26M36 26v-4M30 26v-4M24 26v-4M30 42v4M24 42v4M36 42v4" />
      <circle cx="10" cy="10" r="2" />
      <circle cx="50" cy="50" r="2" />
      <circle cx="30" cy="30" r="1" />
      <path d="M2 20h10M48 20h10M20 2v10M20 48v10" />
      <path d="M10 30H2M58 30h-8M30 10V2M30 58v-8" stroke-dasharray="1,2" />
    </g>
  </g>
</svg>
