<svg id="Layer_1" data-name="Layer 1" xmlns="http://www.w3.org/2000/svg" viewBox="0 0 1000 1000"><defs><style>.cls-1{fill:#c69a47;}.cls-1,.cls-2,.cls-5{fill-rule:evenodd;}.cls-2{fill:#dcddde;}.cls-3,.cls-5,.cls-8{fill:#fff;}.cls-4{fill:#034ea2;}.cls-6{fill:none;}.cls-7{fill:#939598;}.cls-8{stroke:#17479e;stroke-width:0.21px;}</style></defs><path class="cls-1" d="M791.78,500.05c0,161.18-130.61,291.7-291.81,291.7S208.22,661.23,208.22,500.05,338.88,208.25,500,208.25,791.78,338.9,791.78,500.05Z"/><path class="cls-2" d="M754.87,500.89c0,141.12-114.41,255.64-255.58,255.64S243.68,642,243.68,500.89,358.14,245.27,499.29,245.27,754.87,359.69,754.87,500.89Z"/><path class="cls-3" d="M317.58,585.16c2.21-3.25,5.36-7.91,2.59-15.47-2-5.44-6.77-8.3-12.48-6.14-12,4.37-3.05,24.35-16.31,29.17-8.27,3.06-14.92-2.22-17.67-9.87-1.34-3.74-2.29-7.53-3.61-11.17l6.68-2.44c-2.22,4.41-2.32,6.69-.6,11.52,1.89,5,5.7,7.78,11,5.85,11-4.05,2.2-24.09,15.93-29.08,8.87-3.25,17.05,3.6,20,11.55a40.81,40.81,0,0,1,1.93,13.28Z"/><path class="cls-3" d="M301.56,496.93a45.71,45.71,0,0,0,6.72-6.76l.39,6.24c.16,3.25-1.51,4.76-3.88,6.63l-12.64,10c-4.37,3.51-5.71,4.09-5.83,8.5l13.79-.78c3.43-.16,7.34-.38,9.86-2.25l.58,10.59c-3.63-2-7.25-1.68-10.55-1.45l-28.18,1.64c-3.42.22-7.43.42-9.86,2.25-.38-6.4-1.47-12.42-1.8-18.4-.51-7.72,3.56-12,9.44-12.38,7.1-.36,11.95,5.14,14.46,10.48Zm-18.16,24.8a16.48,16.48,0,0,0,0-3.44c-.4-7.37-4.6-11.16-11.85-10.81-7.62.51-8.22,4.86-8,11.67l.18,3.61c1.2,0,2.46,0,3.65-.07Z"/><path class="cls-3" d="M277.84,408.53c2.28,2.54,6.3,3.54,9.94,4.6,8.76,2.64,17.75,5.7,26.81,7.37,3.43.64,6.84,1.35,10.29.61l-3.16,10.78c-3.32-2.42-8.75-4.06-12.82-5.21l-24.3-7.31c-.68-.22-1.57-.51-1.74.07s.32.83.87,1.22l33.72,28-40,3.12c-2.4.16-4.34.16-4.45.83s1.14,1.1,2.15,1.39l23.76,7.14c5.74,1.7,10.51,3.15,13.39,2.28l-2.55,8.69-.82-.91c-3-3.89-14.57-7.68-22.46-10l-18.25-5.44c-2-.58-3.09-.83-4.65.61l2.77-9.07c.24-.9.67-2,1.74-2l35.1-1.25c1.23-.07,2.5.09,2.71-.55s-.49-1.06-1.42-1.8L277.74,420c-1.33-1.12-2.72-2.06-2.18-3.92Z"/><path class="cls-3" d="M358.08,307.69c.48,3.19,3.06,6.11,5.29,8.72l18.87,21.71c2.17,2.61,4.82,5.56,7.77,6.37l-6.61,6.3-3.09-4a.24.24,0,0,0-.42,0c-.19.09-.1.64-.19,1.25a22.06,22.06,0,0,1-7.64,13.64c-6.68,5.7-13.5,6.92-19.75,0l-17.66-20.3c-2.29-2.6-4.84-5.59-7.92-6.49l7.77-6.79c.48,3.18,3.11,6.18,5.26,8.75l14.65,16.82c5.52,6.08,11.32,7.53,17.86,1.93,6.7-5.82,5.13-11.77-.71-18.78-1.84-2.29-3.59-4.7-5.5-6.85l-7.84-9.08c-2.3-2.6-4.88-5.59-7.93-6.49Z"/><path class="cls-3" d="M410.66,331.85c.25-6.82-3.14-15.47-5.54-21.75L399.22,295c-1.32-3.5-3-7.33-6-8.58l7.24-2.77c1.32-.58,2-.84,3.31,0,2.28,1.48,9.68,7.27,13.12,9.52l21.91,14.51c.79.55,1.75,1.29,2.14,1.12s.22-.9,0-1.47l-9.72-25.19c-1.91-4.83-3.55-6.95-5.19-8.43l7.3-2.83a24.68,24.68,0,0,0,2,11.42l10.94,28.5c1,2.28,1.85,4.44,2.78,6.5l-5.17,2-40.32-27c-.43-.29-.9-.58-1.06-.45s-.27.58,0,1.25l7.1,18.31c2.12,5.63,4.82,12.89,9.11,17.37Z"/><path class="cls-3" d="M473.73,274.08c-.41-3.38-.75-7.34-2.62-9.78l10.15-1c-1.43,2.74-1.06,6.69-.72,10.1L483.22,302c.29,3.41.71,7.36,2.66,9.84l-10.28,1c1.46-2.79,1.16-6.72.82-10.16Z"/><path class="cls-3" d="M523.45,313.29l-.53-4.05c-1.61-12.61-4-31.95-7.58-44.17l-.74-2.8,6.71,1.06c1.48.23,1.51,2,1.82,3.25,2.07,12.29,4.56,24.58,5.84,37,.11,1.48.37,2.32.9,2.35.37.1,1.09-1.06,1.64-2.15,3.21-6.24,15.81-26.25,17-33.39a15.19,15.19,0,0,0,0-2.7l9.36,1.48-1.8,2.15c-9.15,11.71-17.34,26-24.67,39.05l-2.16,3.83Z"/><path class="cls-3" d="M578.21,325.38l7.92,3.89c4.31,2.06,9.2,3.19,13.75,1.87l-4.23,5.73c-1.95-.81-4.31-1.68-6.73-3L569,324.26c2.67-1.58,4.6-5.05,6.06-8.14l12.6-25.77c1.54-3.08,3.29-6.65,2.89-9.74l24,11.67-2.33,5.47c-1.4-3.21-4.88-5.56-9-7.56L597,287.1l-8.05,16.38c5.26,2.6,10.89,5.3,16.35,7.43-4.27,2.7-12-1-16.33-3.15l-1.72-.81Z"/><path class="cls-3" d="M644.19,367.39A42,42,0,0,0,644,377l-4.52-4.28c-2.46-2.19-2.3-4.47-1.89-7.37l2.19-16.11c.76-5.54,1.29-6.89-1.73-10.2l-9.32,10.1c-2.42,2.51-5.09,5.47-5.55,8.53l-7.83-7.24c4-1,6.42-3.86,8.65-6.27l19.18-20.72c2.26-2.51,5-5.44,5.53-8.46,4.73,4.31,9.73,7.91,14.07,11.9,5.71,5.31,5.81,11.2,1.8,15.64-4.84,5.11-12.16,4.53-17.69,2.44Zm-4.12-30.52c.77.83,1.5,1.67,2.41,2.54,5.41,5,11.12,4.82,16-.48,5.19-5.63,2.64-9.24-2.28-14l-2.59-2.41a32.45,32.45,0,0,0-2.58,2.54Z"/><path class="cls-3" d="M662.46,386.21c-1.58,3.64-3.8,8.78.19,15.67,3,4.92,8.17,7,13.45,3.85,11-6.43-1.45-24.47,10.72-31.58,7.64-4.51,15-.48,19.19,6.5,2,3.47,3.57,7,5.52,10.38l-6.1,3.54c1.32-4.72,1.1-6.94-1.48-11.38-2.7-4.6-7-6.66-12-3.77-10.13,6,2.19,24-10.4,31.33-8.16,4.86-17.44-.38-21.68-7.78a40,40,0,0,1-4.39-12.68Z"/><path class="cls-3" d="M716.55,431.82c3.31-1,7.19-2.09,9.13-4.5l3,9.84c-3-.87-6.79.26-10,1.22l-27.51,8.34c-3.28,1-7,2.15-9.06,4.56l-3-9.84c3,.87,6.74-.35,10.08-1.29Z"/><path class="cls-3" d="M688.1,486.67c2.66,1.51,6.67,1.32,10.06,1.15L733,486.31l-.46-10.13a8,8,0,0,0-1.9-5.34l5.6,1.32,1.65,38.34c-3.31-1.16-4.07-5.82-4.2-8.94l-.35-8.4-34.87,1.58c-3.38.06-7.36.29-9.82,2.09Z"/><path class="cls-3" d="M684.17,542.09c2,2.28,5.84,3.28,9.25,4.12l6.69,1.7c5.21,1.32,10.73.29,17.53-1.06s13.53-3.73,17.08-6l-1.61,6.33c-.67,2.64-1.48,3-4,3.8a85.7,85.7,0,0,1-20.23,3c-1.16,0-2.36.07-2.53.65-.09.38,1.07,1.22,2.18,2.28l7.7,7.3c2.48,2.54,5.68,5,7.9,5.63a5.06,5.06,0,0,0,3.33-.38l-2.42,9.36L714.12,567c-6.63-7.17-9.51-10.94-19.3-13.38l-3.12-.77c-3.33-.84-7.13-1.9-10.09-.84Z"/><path class="cls-4" d="M316,581.82c2.28-3.19,5.42-7.79,2.86-15.32C317,561,312.27,558,306.53,560c-12.2,4.24-3.49,24.35-16.82,29-8.36,2.89-14.86-2.51-17.47-10.17-1.33-3.66-2.17-7.59-3.44-11.22l6.69-2.38c-2.27,4.44-2.51,6.69-.72,11.48,1.69,5.05,5.53,8,11,6.08,11.06-3.86,2.59-24,16.34-28.76,8.94-3.15,17,3.86,19.84,11.9a43.51,43.51,0,0,1,1.82,13.29Z"/><path class="cls-4" d="M301.56,493.42a44.73,44.73,0,0,0,6.84-6.75l.27,6.24c.16,3.28-1.56,4.79-4,6.56l-12.84,9.87c-4.51,3.41-5.67,4-6,8.43l13.78-.61c3.43-.1,7.44-.29,9.93-2.06l.4,10.62c-3.55-2.09-7.24-1.8-10.53-1.68l-28.13,1.2c-3.51.16-7.4.29-10,2-.3-6.4-1.21-12.45-1.48-18.4-.31-7.78,3.73-11.93,9.71-12.25,7-.2,11.79,5.34,14.29,10.77ZM283,517.87a33.83,33.83,0,0,0,.1-3.47c-.32-7.34-4.52-11.26-11.68-11-7.67.35-8.33,4.72-8.22,11.51l.13,3.54a19.35,19.35,0,0,0,3.65,0Z"/><path class="cls-4" d="M279.4,404.58c2.2,2.57,6.24,3.63,9.87,4.76,8.71,2.8,17.68,6,26.74,7.88,3.37.67,6.8,1.41,10.18.77l-3.38,10.68c-3.15-2.44-8.51-4.15-12.64-5.47L286,415.55c-.71-.23-1.56-.55-1.81,0s.33.83.84,1.28l33.33,28.57-40.13,2.41c-2.4.13-4.22.1-4.49.74s1.08,1.09,2.16,1.42l23.67,7.59c5.69,1.86,10.37,3.31,13.35,2.47l-2.8,8.62-.76-.93c-3-3.89-14.29-7.85-22.25-10.36L269,451.57c-2-.61-3-.8-4.68.49l2.92-8.95c.26-.9.76-1.9,1.76-1.9l35.11-.73c1.28,0,2.57.12,2.73-.39.31-.68-.4-1.09-1.27-1.9l-26.39-22.26c-1.29-1.06-2.67-2.12-2-3.92Z"/><path class="cls-4" d="M361.47,305.05c.45,3.19,3,6.28,5.25,8.85l18.38,22c2.23,2.61,4.81,5.69,7.69,6.6l-6.73,6.11-3-4c-.08-.23-.32-.23-.46,0a6.71,6.71,0,0,0-.18,1.16,21.83,21.83,0,0,1-7.94,13.54C367.76,365,361,366,354.74,359l-17.28-20.59c-2.17-2.64-4.76-5.63-7.75-6.66l7.9-6.56c.33,3.12,2.94,6.17,5.13,8.75l14.33,17.14c5.4,6.11,11.08,7.79,17.8,2.22s5.28-11.74-.38-18.85c-1.79-2.25-3.51-4.73-5.38-6.95l-7.72-9.13c-2.17-2.67-4.77-5.69-7.72-6.72Z"/><path class="cls-4" d="M413.5,330.24c.42-6.72-2.8-15.5-5.16-21.78l-5.6-15.31c-1.24-3.5-2.79-7.33-5.75-8.65l7.25-2.67c1.35-.52,2-.71,3.28.06,2.3,1.45,9.62,7.47,13,9.78l21.56,14.89c.75.58,1.73,1.32,2.23,1.2s.19-.91,0-1.55L435,281c-1.82-4.95-3.35-7.11-5.1-8.59l7.45-2.76a24.2,24.2,0,0,0,1.8,11.55l10.45,28.56c.94,2.44,1.82,4.54,2.61,6.66l-5.08,1.9-39.92-27.8c-.41-.32-.73-.54-1-.48s-.29.61-.09,1.22l6.74,18.47c2.12,5.72,4.6,13,8.94,17.56Z"/><path class="cls-4" d="M477.56,273.59c-.24-3.37-.51-7.39-2.46-9.81l10.31-.8c-1.59,2.7-1.24,6.66-1.06,10.1l2.33,28.63c.24,3.41.53,7.36,2.42,9.84l-10.17.81c1.48-2.74,1.13-6.66.87-10.17Z"/><path class="cls-4" d="M526.68,313.64l-.48-4c-1.45-12.64-3.41-32.07-6.72-44.32l-.78-2.8,6.7,1.22c1.51.26,1.54,2,1.75,3.22,1.82,12.28,4.23,24.7,5.23,37.12.14,1.44.41,2.31.78,2.34s1.15-1,1.68-2c3.31-6.24,16.27-26,17.54-33.14a7.91,7.91,0,0,0,.12-2.73l9.36,1.67-1.73,2.13c-9.44,11.51-17.93,25.7-25.55,38.63l-2.16,3.76Z"/><path class="cls-4" d="M581.37,326.8l7.86,4c4.13,2.12,9.07,3.31,13.73,2.09l-4.43,5.6c-1.85-.81-4.31-1.71-6.71-2.93l-19.57-10.07c2.62-1.51,4.68-4.95,6.2-8l13-25.57c1.59-3.09,3.37-6.56,3.07-9.65l23.66,12.09-2.35,5.38c-1.35-3.28-4.8-5.63-8.83-7.66l-6.32-3.28-8.29,16.28c5.23,2.67,10.83,5.5,16.23,7.71-4.32,2.64-12-1.25-16.23-3.44l-1.75-.87Z"/><path class="cls-4" d="M646.41,369.87a41.09,41.09,0,0,0-.28,9.58l-4.56-4.27c-2.32-2.32-2.16-4.57-1.68-7.53l2.48-16c.84-5.5,1.35-6.79-1.53-10.17l-9.58,9.91c-2.32,2.51-5.07,5.31-5.65,8.43l-7.69-7.33c4-1.1,6.42-3.8,8.74-6.15l19.58-20.39c2.34-2.48,5.1-5.37,5.68-8.4,4.62,4.44,9.56,8,13.83,12.19,5.67,5.47,5.6,11.33,1.49,15.6-4.88,5.09-12.26,4.35-17.73,2.19Zm-3.53-30.56a21.62,21.62,0,0,0,2.29,2.54c5.34,5.12,11,5.08,16.08-.16,5.32-5.53,2.75-9.17-2-14l-2.66-2.51c-.83.8-1.83,1.64-2.68,2.54Z"/><path class="cls-4" d="M664.34,389.07c-1.69,3.54-3.92,8.62,0,15.6,2.8,5,7.92,7.18,13.26,4.15,11.19-6.27-.9-24.51,11.37-31.49,7.72-4.31,15.1-.16,19,6.95,1.87,3.38,3.41,7,5.29,10.42l-6.16,3.54c1.42-4.82,1.21-7-1.3-11.52-2.57-4.63-6.84-6.78-11.82-4-10.26,5.76,1.73,24-11,31.2-8.25,4.63-17.37-.8-21.57-8.27a39.67,39.67,0,0,1-4.15-12.7Z"/><path class="cls-4" d="M717.64,435.59c3.31-.91,7.17-2,9.18-4.35l2.87,9.85c-3.09-.94-6.79.22-10.17,1.12L691.91,450c-3.28,1-7.1,2.06-9.16,4.4l-2.84-9.87c3,.9,6.79-.19,10.1-1.09Z"/><path class="cls-4" d="M688.29,489.85c2.6,1.64,6.53,1.55,10,1.45l34.79-.93-.27-10.17a8.3,8.3,0,0,0-1.74-5.34l5.47,1.42,1,38.24c-3.35-1.12-3.93-5.75-4-8.88l-.28-8.45-34.87.9c-3.38.19-7.36.25-9.92,2Z"/><path class="cls-4" d="M683.22,545.43c2.11,2.26,6,3.35,9.22,4.22l6.8,1.9c5.1,1.38,10.57.48,17.47-.84s13.52-3.47,17.16-5.72l-1.71,6.33c-.74,2.67-1.6,3-4.08,3.73a85.51,85.51,0,0,1-20.3,2.71c-1.11,0-2.31,0-2.46.54-.11.42,1,1.32,2.11,2.45l7.51,7.4c2.6,2.5,5.71,5.14,7.88,5.69a4.43,4.43,0,0,0,3.2-.29l-2.53,9.3-10.71-12c-6.45-7.3-9.29-11-19.09-13.71l-3-.9c-3.29-.86-7.18-1.89-10.13-1Z"/><path class="cls-4" d="M680.65,501C680.65,601.57,599,683,498.58,683a182.06,182.06,0,1,1,0-364.12C599,318.92,680.65,400.43,680.65,501Z"/><path class="cls-5" d="M513.73,357c2.68.16,2.75-2.15,5.52-1.93v4.7c.92-.07,1.83-.07,2.85-.07,1.17-.32.69-2.34.85-3.69,3.3.06,3.73,3,3.73,6.46,2.8-1,3.56-4,7.43-3.79,0,3.63-1.86,5.53-5.5,5.62,1.93,2.71,4.81-1.31,8.33-.09-3.21,6.88,4.6,6.33,2.88,11.1,4.47-.26,2.88-6.47,8.32-5.67.74,2.84-1,3.41-.82,5.6,2.2-.54,4.26-1.38,7.43-1A5.2,5.2,0,0,1,550.1,379c.64,2.45,2.83,3.38,4.68,4.6-1.14,3.73-4.5,1.51-6.47,2.83-7,4.7-3.79,15.48,6.63,13,1.61-1.81.79-6,2.72-7.5,3.87,1,.19,4.12,1,7.43,3.71-1.06,1.75-5.63,2.75-7.43,3.23,1.77,4.1-.45,7.41-1.06.87,2,1.4,4.21,2.87,5.63,2.1-1.9,2.46-1.9,4.6,0-.1,2.31-3.45,1.44-4.6,2.79,3.7,3.42-2.74,9.75,4.77,11.13,2.53-1.38.62-4.21,2.64-7.46,3-.25,2.29,3.28,3.8,4.6,2.18-.32,1.77-3.25,4.64-2.8.23,5,.83,5.54,0,10.2,3.82.39-.65-2.38,1.9-3.73,2.82,1.32.77,2.09,1.87,5.47-1.3.06-2.45.06-3.77.06.65,1.71.5,3.89,2,4.7-6,4.18.17,6.37-4.57,8.36,2.36,3.25,2.73-3.28,5.58-2.8-.69,3.61-3.89,4.8-5.55,7.43-.5,3.32,3.27,2.29,2.9,5.57,3.71.26,2.34-4.34,4.55-5.57,2.67,1.35,2.94,5.73,1.94,8.3,2.47.29,3-1.32,2.74-3.66,3.39,1.6,2.73-.23,5.6-1,.62,2.38,1.43,4.82,5.56,3.7,1.5,5.14-3.17,4.14-5.47,5.59,1.34,1.64,5.08,1,4.63,4.54a16.72,16.72,0,0,1-5.56,2c1.59.9,2.44,2.54,1.93,5.5,1.06-.1,5.48,1.51,2.85,4.7,2.12-1.58,3.87-3.54,6.43-4.7,2.24,0,.26,3-.87,2.73a6.27,6.27,0,0,0,2.8,1.9c1.75-.16.63-3.12,2.8-2.89-2.7-1.9-1.4-5.18-4.75-4.57,3.75-4,1.19-3.35-.08-8.36h5.65c.61-1.39.61-4-.08-4.67,2.31-2.63,6.11,1.19,6.51,3.64,2.54-1.55.47-3,4.63-3.73-.16-1.74-3.15-.52-3.76-1.84.47-2.83,5-1.86,5.55-4.73-.48-4.15-6.42-2.83-4.79-9.26a9.4,9.4,0,0,1,6.65,6.5c3.33-.68-.3-3.67.84-7.5,3.88.45,3.47,5.25,4.68,8.37,1.34-.17.34-2.74,1.87-2.77.87,0,1.78-.1,2.73-.1,2.33,2.45-.8,4.57.1,8.37,4.1,1.32,1.94-3.64,5.55-2.8.64,2.83-2.51,1.8-1.84,4.66.39,1.29,1.66.1,1.9-.9,3.09,1.35-1.9,2.22-.93,4.6,4.58,3.54,6.67-3.25,12.12-2-2.49,4.41,2.38,5.95,5.63,7.33-2.68,3.77,1.81,4,4.65,6.5,1,3.41-4.86,1.74-5.53,1-1.66,1.64.18,2.89,1.87,3.7-.07,2.12-4,.42-5.51.93.28,3.35,2.56,2.32.92,5.6-.24,1.86,2.72-.23,2.78-.94,2.58,2.26-.64,6.69-2.68,7.47.19,1.32,2.76.29,2.76,1.83-2.57,5.05-8.5,7.82-11,10.26,1.17,2.45,6-2.31,7.4,0-4.28,3.64-7.82,2.8-13,4.76-.36,3.48.75,5.44,3.79,5.47-4.56,3,1.15,5.85-3.71,6.63,2.43,3.31,5.63-1.45,11.16.8-.35,2.93-5.13,4.63-7.45,2.86,0,2.9,2.53,3,1.95,6.47-2.14-.58-2.57-3.09-4.68-3.63.37,2.41.53,5,1.94,6.4-1.94,3.37-6.19-4.19-7.47,1-1.9-.26-.21-4.12-2.77-3.74-2.07,2.32,3.51,6.08,1,9.3,1.61-1.19,1.79-3.67,3.65-4.6,3.91,1-.58,4.76-1.78,6.5.53,2.86,2.86,4,3.81,6.43-1.58,2.64-2.46.9-5.6,1,0-1.84,0-3.67-.08-5.6-.24-2.73-3.81,3.34-4.55.06-1.37,1.23-1.46,3.57-2.8,4.67-3.36-.64-1.36-4.28,0-5.53-1-.84-7.27,2.38-4.63,5.59-5.86-1.54,1.28,7.47-8.3,6.6,0,2.51,1.58,1.8,0,3.7-4.86-1.13-5.55,1.83-6.45,4.72-2.17-1.54-4.39-2.44-2.8-5.53-2.54.23-2.56,2.86-4.6,3.7-2.25-1.7-.68-7.4.85-8.33.65-2.57-1.88-1.9-2-3.7-2-.16-.29,3.31-.8,4.63-2.83.36-2-3-2.83-4.63-3.62-.39-1.84,4.31-6.45,2.86,0,1.64-1.82,2-2.83,4.67-2.18.38-2-1.68-4.57-.9,3.14,3,11.67.61,12.11,6.4-4.71,1.41-7-2.67-9.35-.81,2.74,2.22-.69,1.64,1.93,5.57-3.36-.36-5.5-1.83-8.37-2.74-1.73,1.64.8,3.13,1.89,4.6-1.89,2.74-5.42-.64-6.56-1.73-1.66,2-2.8,4.53-4.57,6.53-.85-.68-.85-3-1-6.53,2.51,0,2.45-2.61,3.77-3.77-1.26-2.57-1.87,2.93-4.6,1.9.75-2.28,2.44-3.63,2.73-6.56-3.34.51-3.07,4.44-3.67,7.53-1.39-4.15-5.64-.36-7.47-4.6-3.11,1-1.64,6.37-5.55,6.59.64-2.83-.94-3.41-.94-5.6a50.82,50.82,0,0,0-2.78,6.5c-2.89-3.63-.69-6.69-5.61-8.3,3.88.42,4.63-2.12,7.4-2.83.13-2.06-3.36-.38-4.68-.9-.34-4.08,5.67-1.8,7.4-3.76-6.92-5.18-16.14,2.28-20.4,5.72,1.42,2.77,3.6-1.28,6.58,0,.58,3.32-2.75,2.8-5.6,2.77.61,2.77,5.44,1.41,6.58,3.67-.82,2.25-4.81,0-5.64-.9-2.13,1.64-2.13,5.3-2.74,8.46-6.48-1.64,1.48-7.18-1-10.26-9.41-2.22-19.7,12.93-15.95,19.58,1.93,0,1.12-2.54,3.74-1.93-.38,4.28,2.66.2,3.78,5.57-6.16.48-7.07,6-13,6.63-3.62,13.44-7.24,34.61,9.92,43.81-.18,1.7,1.13,2,.89,3.7-2.66-.91-3.49-3.83-7.42-3.64,6,4.73,9.71,5.76,19.49,6.34-.54,1.28-1.88,1.83-3.6,1.9.79,2.57,2.85-1.29,5.53,0,0,.94-1.14.74-1.86,1,2.52,1.61,4.53-.13,7.46-.13,0,1.8-3,.68-2.8,2.86,4.07-.89,5.94-1,9.35.81-.26,1.25-2.29.84-3.69,1,12.18,1.65,9.43,8.11,22.34,8.14-2.86,1.13-.69,3.22.87,1,1.48,2.25,8.06-.65,9.38,1.77-3.8,0-7.48.06-11.15.12,8.06,2.06,19.62.55,27.91,2.51,4,0,8,0,12-.12-1.64,2.12-7.08.38-10.17,1.06-18.11.93-34-.39-45.59-6.18,4.13,4.6,13,4.28,17.69,8.3,2.07-2.06,19.56-.39,28.84-.26,1.28,0,16-.32,8.39.84-13.06,1.93-34.93.19-51.16-.48-2.88-1.45,4-.84,5.58-1-3.46-3-14.14-2.32-17.59.16,2.86,5.5,15.84.64,21.29,3.51-7.86,2.47-19.44.45-27.89.25-2.23-1,2.25-3.86-1.82-3.66-1.14.54,1,1.93,1,2.76-15.46.52-32.93-2.7-51.2-.45,11.76-4,27.84-2.86,40.95-1.32-9.39-3.89-35.14-4.37-45.55,1.32-5.08-1.64-9.74-1.06-14.87-.77-.42-2.6,5.08.64,4.63-2,4.81,2.22,12.17,0,16.72-1-4.76-1.25-14.41,1.22-21.35-1.73,3.24,3.89-14.72,1.06-20.4,2.05,3.72,2.41,12.82-.58,16.68,1.74-18.7,2.16-41.51.35-58.48,4.21,17.29-6.27,37.68-5.66,47.2-15.31.41-2.06,5-.74,5.62,0-3.67,1.87-7.58,3.6-11.12,5.63,3,.84,7.95-4.41,13-4.73-1.45-.7-1.4-3-3.77-2.76,9.25,1.61,15.93-7.24,22.23-6.69a2.6,2.6,0,0,1,0-3.67c-21.87,9.52-40.56,21.2-73.23,20.1,5.67,3.12,13.9-2.25,19.53.78-10.23,3.08-22.05,2-33.34,2.18.53-1.22,9.62-3.05,12.95-2.06-2.45-3.6-11.57-.25-15.8.2-3.22.74-5.32-1.39-1-.94,6.88-2,11.24-1.12,18.53-2.95-5.05-2.84-11.37,1-17.58.19,12.53-2.16,26.28-4.89,38.95-4.06,3.12-1.6,6.06-3.37,11.12-2.86,1.2-2.38,12.69-4.5,17.64-4.85-1-1.74-.69-4.93-4.59-3.67-.48,2.22,4.11-.61,2.77,2.73-15.09-.64-22.45,6.21-38.07,5.05,11.71,2.77-16.27,3.77-22.27,3.86,2.15-2.67,6.29-4.28,7.41-1.93,1-.16.74-1.7.9-2.8,1.38,0,3,3.9,2.78,0a2.64,2.64,0,0,1,1.92,2.77c1.54-4,4.84-3.31,9.26-2.87-.46-.8-.87-1.64-1.94-1.8.4-2,2.89,1.26,3.81,1.8,1-.22.72-1.7.87-2.83,5.69,1.19,7.09-1.73,16.69-1.92-2.06-1.61-15.1-1-4.63-1.84,3.7-.51,9-1.29,13-3.86,10.67,1.06,19.59,5.85,24.19,1.71,3.62-3.41,7.9-7.43,11-12.29-1.06-11.49,10.41-38.25.33-67.78-2.53-2.44-4.93-2.48-10.17-2.86-14.1-1.19-28.71,13.32-41.64,10.55a16.12,16.12,0,0,0-3.7,7.46c-5.06-5-8.17,5.57-9.25,10.33-2.91-.19-3.12-3.09-2.81-6.5-2.7.13-1.48,4-4.58,3.76v-2.76c-2.59-.71-1.74,1.9-2.83,2.83-1.65-.16-.57-3.22-1.81-3.8-2.78.2-1.62,4-4.66,3.83,1.93-8.27-5.07-7.33-7.56-11.13-1.37.84-1.32,3.06-1.82,4.67-2.14-2.71-4.68-1.23-6.45,1-2.38-1,.24-7.2-1.93-8.33-5.35,3.28-8.75,5.63-13.89,4.73,3.78,1.77-.2,3.89-.94,6.59-1.57-.9-2.05-2.92-1.89-5.59-3.94-.52-3.77,3.05-7.4,2.83-.08-5.82,7.32-8.49,5.45-13.09a8.08,8.08,0,0,0-1.82,2.86c-2.23-.23-.58-4.09-.06-4.63.14-2-3.3-.42-4.62-.9.87,2.92,2.79,4.08,1,7.39-1.9-1.76-4.94-2.47-4.68-6.43-3.06.35-1.79,4.95-5.49,4.67-.56-3.09-.86-4.06-3.82-2.74,2.23-2.57,1.86-5.66.85-9.3-1.55,0-3.07.07-4.62.07,1.18-5.28-3.7-4.38-3.73-8.36a3.48,3.48,0,0,1,4.62,0c.53-3.47-2.46-5.88-.05-8.39,2.23.48,3.26,2.28,4.6,3.7,3.55,1.32,1.82-2.58,4.68-1.9-1.06-3.6.5-3.8-1.06-6.53-3.22-.13-1.72,4.41-5.5,3.83-1.36-4.51-.36-6.08-6.58-4.6,1.12-1.39,3.58-1.48,4.6-2.86-.24-1.26-2.25-.75-3.7-.87.82-1.35,2.36-2,4.65-1.93-1.64-3-3.36-.2-7.37-.84-.48-1.77-2.07-2.32-1.91-4.6,3.47,3.38,3.73-.68,3.65-5.63-5.36,1.16-3.3,9.72-8.27,11.16-.64-5.37-1.49-10.26-7.53-10.1.84-1.64,1.73-3.25,4.59-2.83,2.56-.67,1.88,1.9,2.83,2.8,2.19-1.54,4.9-2.64,5.55-5.63-5.65,1.83-8.77,1.83-12.13-2.7,3.75,1.25,2.89-2.06,5.57-2-.17-3-3-6.08-1-8.3,2.08,2,4.49,3.54,6.6,5.5-.15-1.58.77-4.51,1.72-7.43,2.31.77,2.49,3.66,2.86,6.5,4.36.45,4-2.51,8.33-3.8,1.45,4.25,5.13-2.38,8.36,1.77,1.42-.9-1.62-5.12-2.84-6.5,2.07-4,7.83,1.9,6.59,4.6a4.29,4.29,0,0,1,2.78-1c-1.67-1.9-3-7.5-1.06-10.2,1.21.32,1.47,1.64,2.85,1.87.48,2-1.79,1.31-1.83,2.79.35,1.74,2,2.29,1.83,4.6,3.31-3,3.17-9.2,6.42-12.12,3.07.61,1.17,6.37,3.81,7.4,3.28.44,2.22-3.32,5.5-2.8.84,2.92-2.94,1.28-2.7,3.7a4.19,4.19,0,0,1,1,2.79c1.92-.87,2.77-2.79,2.75-5.62,5.17,2.31,1.63-1.39,4.55-3.7-.08-2.13-3.9-.39-5.59-.9-.7-2.61,1.93-1.94,1.93-3.77,2.89-.9,1.28,3,3.66,2.77,1.1-.16.81-1.71.94-2.83-.41-1.35-1.23.38-2.82.06-.32-1.64.71-1.77,1.84-1.9-1.87-2.7-6.78-2.47-6.52-7.36a46.42,46.42,0,0,0,11.11-1c.23-5-4.9-4.44-3.81-10.17,2.4.1,4.8.1,4.68,2.74-1.67.09-2-1.16-3.73-.9a12.83,12.83,0,0,0,4.68,4.6c-2.35-3.83,1.79-2.83.89-7.47,1.83,1.93,3.92,0,4.58-1.86,1.42.74,1.38,3,1.93,4.6,6.29.9,8.32,1.8,12.08,0-2-1.8-4.13-3.35-4.7-6.5,3.37-.36,5.12,1,7.43,1.77-1.49-2.25-4.06-3.38-2.83-8.33-3.94,1-2.44,7.39-9.26,5.63-.58-4.54,4.21-3.86,5.5-6.53a52.56,52.56,0,0,1-13,1.06c-.68-5,4.61-4.15,4.61-8.4-4-.51-1.82,5-6.53,3.73,0-2.41-.06-4.92-.06-7.4-2.21,1.77-2.79,5.18-6.49,5.63-1.73-1.41,1.63-4-1.81-4.63,1.57-3.34,6.48-3.38,8.3-6.59-.87-2.25-6.49.35-7.45-1.74.11-2.64,1.53-4,4.58-3.76-.56-2.32-3.62-2-2.8-5.53,3.72-1.68,8.56,1.67,10.15-2.9,4.41-.55,2.61,5.21,2,7.36-.19,2,3.19.42,4.55.94,0-3.12,0-6.24,0-9.33,2.25,3.38,5.63,6.11,11.17,3.67.6,3-1.72,2.83,0,4.6,1.4-1.48,2.35-3.25,4.58-3.77,3.17-.25,3.31,5.05,6.58,1.74-2.53-1.13-4.63-2.73-7.46-3.57.83-1.64,1.64-3.25,4.61-2.8-1.49-6.53.74-1.35.74-8.36,5.52-.58,3.85,10.13,9.41,6.4-1.77-2.67-3.57-9.17,1.82-9.36-.53,5.21,3.41,2,4.7,2.76-1.61-1-2.14,4.77,4.61,1.84.53-1.35-3.63-2.22-1-2.77-2.27-1.45-4.13-3.21-7.46-3.63.13-1.74,3.15-.61,3.73-1.93-3.17-3.41-4.74,2.38-7.43.06,2.27-3.18,7-4.21,10.16-6.56-.78,2.57,1.27,2.35.89,4.6,1.49-1.87,5-2.54,4.74,1.83,2.56-1-.29-3.92,0-5.59a6.37,6.37,0,0,1-4.73,1c1.59-3.37,2.6-5.82,2.72-8.36-3.73-.61-2.22,3.89-5.52,3.73,0-4,2.22-5.72,3.62-8.36-2.9-.49-3.23,1.64-6.51.93.2-4.86,4.15-5.11,6.46-5.6a10.72,10.72,0,0,1-.1-8.39c5.63,1.51,5.6,8.72,10.4,11.1,2.1-.39,0-4.93,1.78-5.6-.26-2.13-4.41-.52-3.7-3.7,4.44.35,6.55-5.18,11.1-1.9,2.72-.87-.61-3,0-4.69,2.36.09,4.4.54,5.61,1.8,2.43-.9,2.28-4.57,4.6-5.6,2.75,2.19,4.61,5.21,4.61,10.2a6.09,6.09,0,0,0,4.7-1c-.77-.68-.51-2.54-1.93-2.74a28.47,28.47,0,0,1,12.13-.09c.71,3.15-1,3.89-1.79,5.62.94,1.74,5.65,1.68,2.8,4.57,3.38-2.7,6.26,1.29,9.33,1.81,1.08-.23.8-1.71.9-2.84-.9-.77-5.24-2.63-5.6-.83-1.93-.32,1-3.25,2.79-2.83-.45-4.22-5-6.12-2.93-10.23a7,7,0,0,1,5.64,5.56c5.3-.42,2.06-9,8.26-8.46C512.53,353.3,516,354.62,513.73,357Zm-2.89,1.9c-.58-3.41,2-3.63,1.83-6.56C508.52,351.76,508.72,358.13,510.84,358.9Zm50.9,182.55c3.43.8,3.66-4.57.9-4.64A6,6,0,0,0,561.74,541.45Zm-74-178.72c1.93,1.74,4.81-1.26,4.57-4.6C489.13,358.06,488.92,360.86,487.73,362.73Zm-14-1.64c1.59-1.77,1.12-6.72-1-7.43C472.9,356.36,470.1,360.25,473.77,361.09Zm-8.33.93c1.69-.19,2,1.06,3.73.87.34-3.44-.81-5.41-3.78-5.47C466,360.28,466,359.19,465.44,362Zm49.23,1.45c.21-.74.67-1.06,1.81-1,.13-2.25.13-4.47-1.88-4.6C515.63,360.28,511.81,362.31,514.67,363.47Zm-6.48,3.76c-1-4.05,3.08-3,2.71-6.53a5.53,5.53,0,0,1-3.71-.87C506.64,361.86,504.87,366.81,508.19,367.23ZM463.54,364c-.5-3.05-7.24-4.34-7.4,0C459.58,364.47,462.59,365.33,463.54,364Zm-16.68,2.87c.11-2.26-.55-3.86-1.87-4.64C443.55,363.6,444.06,367.1,446.86,366.85Zm75.3,2.12c4.3-.32,2.46-4,3.6-5.6C522.79,363.53,521.78,365.56,522.16,369Zm-47.38,2.31c3.22,2.29,5.92-2.44,7.33-4.69-2.05,1.29-3.44-2.38-3.65,0C480.89,368.16,474.52,368.74,474.78,371.28Zm-18.64-2.67c1.21,0,.9,1.58,1.93,1.87,0-1.87,2.49-1.25,1.8-3.73C457.75,366.52,456.43,367,456.14,368.61ZM492.49,373c0-3.51-.52-6.4-3.86-6.47C488.26,370.35,489.8,372.22,492.49,373Zm-10.33-.8c-.67,4.15,5.89,3,6.58.8C486.38,371.61,485,370.8,482.16,372.19Zm44.7-.49c1.17,3.35,0,3.48,1,6.5,2.16.39,1.95-1.67,4.6-1,1-3.41-3.08-1.77-3.76-3.67,2.46.26,2.44-2,2.77-3.73C529.13,369.64,528.61,371.35,526.86,371.7ZM459,377c2.65-.19,3.94-1.67,3.71-4.7-.91,0-1.85,0-2.8,0C459.44,374.24,457.27,375.31,459,377Zm9.37.83a4.2,4.2,0,0,1,2.79,1c-.45-2.25,1.64-2.12.83-4.7-1.14,0-1.28-1.16-2.78-1C469.6,375.37,467.56,375.21,468.36,377.81Zm49.2-.48c1.32-.09,3.75-5.08-.08-4.6C517,373.34,515.34,377.11,517.56,377.33Zm-65.92,1.55c.33-2.9-3.67-6.18-5.65-3.64C448,376.34,447.21,380.23,451.64,378.88Zm54.79-.49c3.8.55,2.9-3.86.87-4.66A6.21,6.21,0,0,0,506.43,378.39Zm-15.77,2c.2-2.7.11-5.11-2.9-4.6C487.1,379,488.74,379.84,490.66,380.42Zm-15.82,2c.41-1.76,2-2.34,1.87-4.69-1.25,0-1.3-1.13-2.81-.87C474.48,378.46,472.85,382.32,474.84,382.41Zm29.81.65c1.12-2.7.66-5.34-2-6.44C502.91,379.2,502,383,504.65,383.06Zm20.41,5.43c-1.56-3-1.35-2-1-6.53-3.91-.16-3.19,4.22-5.49,5.6,0-.9-.71-1.06-1-1.8,1.25-2.48,3.84-3.57,4.63-6.56-1.29,0-2.46,0-3.81,0-1.39,2.32-.39,6.85-4.49,6.59,1.19-1.38,1.83-7.43-1.08-7.46-.25,3.44-2.65,9.52-.82,12.1.15-.71,3.09-2.9,2.82-.9-.92.64-3.56,4.31-1.82,4.6.37-1.58,1.22.16,2.78,0,1.61-2.1-.21-6,.89-6.53,1.33,3.28,1.89,1.44,4.66,2.76C521.47,386.92,522.74,388,525.06,388.49Zm-6.4,5.67c4,.54,5.13-1.77,6.53-3.83C521.66,388.53,520.51,391.87,518.66,394.16Zm15.68-8.5c1.94-.64,1.2-6.11-1-5.59C534.24,382.35,530.12,385.66,534.34,385.66Zm4.69-.09c3.09,1.15,4.86-3.67,2.72-4.67C541.62,383.28,537.86,381.93,539,385.57Zm-32.47,6.75c-1-1.54-3.62-6.24-5.59-3.63,1.64.87,2,2.89,1.94,5.59-1.66,0-8,1.48-4.68,5.6.19-1.16,1.06-.58,1.82-.06.82-5.37,6.38-5.95,10.21-8.4-1.33-4.18,1.79-7.91-2.89-9.3-.36,4.12.82,6.76,2,9.3C507.19,389.59,508.3,391.61,506.56,392.32ZM484.17,386c1.89.38.81,3.66,3.77,2.8,0-1,0-1.9,0-2.8C486.14,386.92,484.8,383.22,484.17,386Zm7.51.9c-.33-1.26-1.4-1.74-1-3.73h-2.74C487.42,387.63,491.17,386.82,491.68,386.92Zm-33.45,3c.24-2.15,3.2-1.67,2.72-4.6h-3.7C457.76,386.66,456.2,390.14,458.23,389.94ZM528.89,395c.54-4.37-.86-6.72-2.85-8.36C525.51,390.91,526.86,393.29,528.89,395Zm-29.79-6.3c-1.9,0-3.75,0-5.57.09C492.54,392.61,500.1,392.58,499.1,388.69Zm35.33,6.2c2.61.1,1.85-1.6,3.72-.06,0-1.67,2.43-5.37,0-6.47C538.42,392,534.16,391.26,534.43,394.89Zm-48.36-3.31c-.29,3.77,6.39,1.48,6.47-.06C490.86,389.75,488.19,391.1,486.07,391.58Zm-32.41,5.86c2.13.25,3.46-.26,3.67-1.9-1.71.09-3.18-4.73-4.66-1.8C454.08,394.51,452.44,395.18,453.66,397.44Zm9.27.9c-1.34,1.38-1.66,6.33,1.91,5.43-.13-5.27.87-.25,2.82,0C470.2,400.81,464.66,399.91,462.93,398.34Zm7.48.83c-.58-1.93,1.09-6.11-1-6.49-1.25,4.72-1.58,2.86-5.61,1.86-.76,2.64,1.32,2.45.95,4.66C468.09,397.37,466.63,398,470.41,399.17Zm17.61-.12c4.05,0,5.82-2.29,7.39-4.73C490.51,393.45,489.1,396.12,488,399.05ZM514,396c-4.07-2.32-9.58-1.67-10.2,3.79,2.31,1.84,4.81-2.09,6.47-3.79.29,2.25,1.9,3.89.11,5.63,1.68,0,5.86-2,3.62-2.9C511,401.17,513.88,398.05,514,396Zm-65,6.14c-.13-2.83,4.63-1,4.63-3.73-1.27-.29-1.81-1.29-3.76-1C449.93,398.88,446.47,401.3,449,402.13Zm5.55.9c2.46.39,5.26-3.31,2.75-4.66C457.12,400.59,454.15,400.11,454.58,403ZM475,404.67c3.92,3.41,6.87-5.11,2.8-6.49C477.56,401,475.86,402.42,475,404.67Zm-2.87-6.43c-1.17,2.12-2.57,4.18-2.66,7.46,3.24-.87,3.05.16,5.53-2C473.86,402.23,475.36,397.85,472.17,398.24Zm64.23,5.92c1.27-1.29,1.46-4.57-1-4.67-.61,2.19-2.3,3.29-3.7,4.7-.06-2.31-.19-4.79-2.81-4.6-.58,3.7,1,5.28,1.09,8.33-3.3-1.38-8.67-2.86-9.3,2,3.81,1,3.56-2,6.47-2,.85,3.05-4.52,4.69-1.79,6.49,4-2,12.23-9.71,11.1-1,.11-1.74-.9-2.16-2.81-1.9-.33,2.32,1.73,2,.93,4.63,2.85-3.89,5.08,1.9,8.44-1-2.6-1.13-7-5.34-4.76-8.3.16,2.38,1.72,3.25,2.83,4.63-1.82-6.76,6.9-3.12,8.32-6.63-3.65-3.79-7.66,3.06-10.22.13a45.94,45.94,0,0,0,4.62-4.73c-4,.78.71-1.83-1.94-1.83C539.56,400,540.76,403.16,536.4,404.16Zm-41.81,4.08c-.65-2.83,1-3.37.91-5.62-1.26.19-3.46-3-3.78-.84C493.47,402.87,491.07,407.22,494.59,408.24Zm22.28-5.72c1.19,1,7.27,1.74,8.35-.1C523.79,400.27,518.14,399.66,516.87,402.52Zm46.47,2.35c-4.36-.94-5.28,1.54-7.43,2.86-1-2.61-3.66-1.13-1.84-4.66-3.47-.55-3.55.09-5.61-2.77C549.52,410,559.33,409.05,563.34,404.87Zm-7.43-.87c1.64,1.67,4.66-.13,3.66-3.73C557.19,400.36,555.92,401.62,555.91,404Zm-116.06,4.76c1.2-2.8,1-5.73-2-6.53C436.71,404.9,437.13,407.63,439.85,408.76Zm62.26-1.48c.22-2.54,3.82-1.77,4.53-3.8-2.65.78-2.38-1.25-4.63-.86C502.61,404.26,499.29,406.51,502.11,407.28ZM450,408.66c1.18,1.29,4.38.55,5.6,1.84,1.22-3.19,6.16-2.61,6.43-6.63A91.86,91.86,0,0,1,450,408.66Zm30.69.61c.56-2.18,4-1.54,2.75-5.56-.93,0-1.9,0-2.83,0C480.89,405.35,478,408.34,480.7,409.27Zm-15.81-.77c-2.3-1.64-6.82.84-6.43,4.73,4.74-.19,3.47-6.76,7.41-2.86a7.17,7.17,0,0,1,2.7-5.63c-1.19,0-2.52,0-3.73,0C464,406.54,467.72,407.89,464.89,408.5Zm23.19.71c3,.39,3.8-4.47.87-4.63C488.44,406.54,486.38,407.63,488.08,409.21Zm-56.64.48c-.05-2.09-4.1-5-5.65-2.7C428.09,407.47,427.85,410.53,431.44,409.69Zm40.9.58c-2.27-.9,1.77-4.08-2.83-3.63-1.42,4.53,2.44,6.69,1,8.29,2.56-.83,5.33-6.4,3.62-8.33C472.9,407.15,474.06,410.18,472.34,410.27Zm-29.66,3.09c3.49.64,5.77-5.21,2.65-5.63C444.88,410,441.81,409.76,442.68,413.36Zm-35.34,3.06c.41-3.45-.45-5.83-2.81-6.41C404.21,413.39,404.42,416.35,407.34,416.42Zm138.42-4c1.14-1.61,4.45-1.19,4.55-3.7h-6.42C544,410.5,544.52,411.85,545.76,412.46Zm-152.3,3.18c.34-2.92-.91-4.15-3.78-3.66C389.76,414.39,391,415.58,393.46,415.64Zm81.79.23a4.23,4.23,0,0,0,3.62-1.9c-1.81-.35-.76-3.6-3.77-2.8C475.1,412.75,475.1,414.26,475.25,415.87ZM489.08,412c.29,2.19.93,4,2.85,4.6-.76-2.83,1.54-2.7.88-5.57A5.33,5.33,0,0,0,489.08,412ZM464,417.8c.66-2.16,3.13-2.48,3.74-4.67C465.39,410.18,461,415.74,464,417.8Zm15.83-2c-1.09,1.35-.21,6.37,2.83,6.5C483,418.73,482.16,416.51,479.83,415.8Zm4.68,3.67c-.16-1.83-.16-3.7-.16-5.56-1.27-.1-4.79-4-4.55.06.26,1.13,1.06.55,1.8,0C481.29,417.09,483.24,417.89,484.51,419.47Zm-68.74-.26c3.75.9,4.79-5.46,1.82-5.63C416.75,415.22,415,415.9,415.77,419.21Zm15.75-1.12c.06-2.38,4-1,2.75-4.7-1,0-1.85.1-2.82.1C431,414,429.33,417.89,431.52,418.09Zm15.82,1.73c.73-1.22,5.55-5.82.86-6.49C448.73,415.45,445.89,418,447.34,419.82Zm5.55-.06c2.16.19,3.54-.26,3.7-1.87-1.14-.16-2.65.2-2.77-.93,1.07-.19,1-1.48.9-2.76C450.41,412.65,451.85,418.73,452.89,419.76Zm94.75-2.67c0-1.29,0-2.48,0-3.73-1.37.16-3.34-.32-3.7,1C546.32,414,544.66,417.89,547.64,417.09Zm-79.84,7.17c-.67-3.37,1.93-3.6,1.8-6.49-4.34.83,1.24-2.45-1.86-2.8C465.93,417,464.66,422.72,467.8,424.26Zm-26.05-3.47c3.44.61,4.1-1.55,3.71-4.7h-2.78C443.06,418.38,441,418.22,441.75,420.79Zm86.43-.74c2.92-.23,4.36-1.74,4.61-4.7H530C529,416.61,529.08,418.83,528.18,420.05Zm-99.41-1.93c-.16-2-4-.35-5.6-.9C422.74,421.11,428.61,422.27,428.77,418.12Zm40.91,4.25c1.82,2,4,0,4.59-1.87-.73-.19-1.79,0-1.79-.9.08-1.29,1.43-1.61,1.79-2.83C471.15,417.09,470.62,419.89,469.68,422.37ZM509.6,422c.77-.7,4.13-5.69-.06-5.56C509.83,418.12,506.9,421.14,509.6,422Zm51.13,2.35c-.34-2.12-1.06-4-2.88-4.63-.66,5.44,3.44,5.79.13,9.3,5.81,1.48,8.17-3.09,11.19.83-1-3.12,2.76-6.33-.14-8.39a52.43,52.43,0,0,1-3.63,4.73c-2.4-1.93-3.66-10.91-4.7-9.27C560.91,418.7,563.13,423.11,560.73,424.39Zm4.67-1c2.81.94,3.85-4.53,2.7-4.63C567.24,420.37,564.35,420,565.4,423.36ZM571,421.5a4.28,4.28,0,0,1,2.74.93c1.61-1.25.24-5.28,1.82-6.53C572,415.77,572.54,419.73,571,421.5ZM409.3,423.84c1.85-2,.29-5-2-5.49C405.8,419.86,407.94,422.49,409.3,423.84Zm143-6.78c-.72,3.5,2,3.54,3.73,4.57-1.25-2.1,2.4-3.51-.11-3.7C555.29,420.66,554.62,415.77,552.3,417.06Zm25.12,5.31a4.88,4.88,0,0,1,2.77.9c-.35-2.32,4.26-4.31,1.85-5.54C580.69,419.47,578.15,420.05,577.42,422.37Zm-145.84,4.11c1.87-1.48,2.64-5.21-.06-6.53C430.62,421.63,428.06,425.71,431.58,426.48Zm20.47-3.05c-.32,1.32-1.35,1.86-.94,3.79,2.92.39,2.58-2.35,3.68-3.79-3.86.83-1.79-4.38-5.6-3.61-2.33,2.67-4.49,8.37.1,10.23.43-3.57,1.29-4.37-1-6.49C450.41,424.75,451.73,421.11,452.05,423.43Zm5.52.93c2.82-.1,3.41-2.09,4.55-3.76a4.61,4.61,0,0,1-2.68-.87C458.47,420.92,458.5,423.11,457.57,424.36ZM395.39,424c2.32-.13,4.38-.61,5.46-1.89C398.17,420.89,396.31,421.34,395.39,424ZM478,425.13c-.16-1.8,1.09-2.06,1-3.76-1.24,0-1.36-1.16-2.8-.87C476.07,422.75,476,425,478,425.13Zm44.63-1.32c.16-2.44-.37-4-2.8-3.7C519.59,422.59,520.15,424.1,522.63,423.81Zm-26.94,3.93c-.64-2.54,1.93-1.87,1.93-3.73-1.85.32-1.93-1.26-2.93-1.84C494.37,424.26,492.62,427.22,495.69,427.74Zm-96.58-1.93c.45,1.8.34,3.92,2.78,3.7-1-2.38,2.77-4.41-.06-5.54C401.54,425.26,399.86,425,399.11,425.81Zm7.48,4.6c-.79-2.93,2.55-1.84,1.73-4.7-1.14,0-.86-1.61-1.8-1.87C404.32,426,402.74,428.61,406.59,430.41Zm27.85-2.16c2.83.36,3.67-4.5.86-4.57C435.7,425.87,433.67,425.71,434.44,428.25ZM583,427.93c-.37-2.93,2.89-2.12,1.85-5.63C581.51,421.82,579.47,427.22,583,427.93Zm-69.59.51c2.83.42,2.52-2.31,3.65-3.69a3.94,3.94,0,0,1-2.77-.91A6,6,0,0,0,513.4,428.44Zm38.9-4c-.82,3.15,3,1.41,4.72,1.86C557.66,423.07,553.73,422.94,552.3,424.46ZM571.93,428c3.16,0,3.42-2.73,4.53-4.66C573.15,423.11,570.17,426,571.93,428Zm-147.72,3.22c.66-2.89-.93-3.41-.93-5.63-1.27,0-2.56,0-3.76.07C419.86,428.67,422.33,429.6,424.21,431.21Zm39.89-.38c1.34-1.55,3.3-2.39,2.8-5.63-1,0-1.91,0-2.8.06C463.38,425.87,462.11,430.44,464.1,430.83Zm20.56-2.06c-.49-1.77-.49-4-2.9-3.64C480.14,426.68,482.08,428.73,484.66,428.77ZM410.29,435c.41-1.31,4.47-6.14,0-6.53C409.35,429.28,408.32,434.43,410.29,435Zm135.6-3a8.64,8.64,0,0,0,5.59-3.76C548.49,426.68,545.5,427.74,545.89,432Zm11.19,4.54c1.9-.52,6.14,1.06,6.45-.94C562.35,434.24,557.08,433.85,557.08,436.49Zm1.85-6.5c-2.43.58-3.38-.39-2.88-2.77-3.92,2.38-6.92,4.86-5.45,9.33,1.53-1.29,1.09-4.44,4.69-3.73a4.49,4.49,0,0,1-1,2.77C557.5,435.36,559.11,433.62,558.93,430Zm-80.82,3.47c-.19-1.35.22-3.38-.95-3.73,0,.58-.74,1.13-.93,0-.07-.54-.13-1.12-1-.9C474.15,431.53,474.84,433.08,478.11,433.46Zm60.46,5.05a2.43,2.43,0,0,1-1.9-2.7,5.21,5.21,0,0,0,3.68-1c.23,1.48-.27,3.41.95,3.73.66-2.18,3.07-2.51,3.72-4.66-4.44,1.58-3.85,0-3.78-4.66-4.09,1.38-2.72,6.46-7.4,2.89-.29,3.35-.08,4.66,1,8.3C535.7,437.68,538.26,440.09,538.57,438.51Zm31.54-4.89c3.52-3.73,4.1-.06,8.34-1.93-2.41-.38-2.83-2.83-5.63-2.83C572.05,430.6,569,430.15,570.11,433.62Zm-151.43-.54a4.54,4.54,0,0,1-2.8-.94c.33,3.06.86,6.05,3.73,6.5-.56-2.25,1.07-6.75-.93-7.4Zm149.59,3.31c.18-2.67-.3-4.7-1.94-5.53C565,432.27,564.69,437.29,568.27,436.39Zm-119.82,2c3.19,1.42,4.33-6.27.92-5.56C449.37,435,447.74,435.55,448.45,438.38Zm-3.75,1.9c4.75.32,2.43-6.08,0-6.56C443.21,436.49,444.22,438.38,444.7,440.28Zm18.53-3c2.7,4.18-1.64,4.44-3.58,6.56,7.25-1.73,5,6.12,12,4.48-.69,2.67,1.4,2.44,1,4.72,4.09-.16,5.79,2.22,8.43,3.61-6.9-7.79-7.91-16.63-15.08-23.07C466.32,436,465.71,437.55,463.23,437.32Zm-4.61,3.74c3,.44,3-2,2.81-4.67-.95,0-1.91,0-2.81.07Zm20.53,6.33c-2.55-1.67-6.81-10.84-6.59-9.2C473.72,441.83,476.84,448.23,479.15,447.39Zm9.45,11.07c1.06-3.16-3.7-4.86-1.07-6.44,2.27,3.38,1.71,10,4.68,8.3-2.22-8.94-7.23-15.05-13.06-20.39-.89,3.12,5.15,4.05,2.76,5.63-3.45-1.84-4.67-5.95-7.48-8.27C477.92,445.49,484,451.19,488.6,458.46Zm41.64-14.29c2.76-2.31.79-4.6,1.75-7.46C528.66,437.29,528,442.05,530.24,444.17Zm-97.55-.09c3.27.13,4.76-1.35,4.58-4.67C434,439.35,433.82,442.18,432.69,444.08Zm146.78-1.26c2.91.29,3.74-4.53.9-4.69A6,6,0,0,0,579.47,442.82Zm-78.92,9.11c4.76-1,4.27-8.95,1.85-12.19C501,443,501.32,448,500.55,451.93Zm36.18-7.85c1.42-1.64,5.39-.77,5.55-3.77C540.14,437.81,534.5,442.66,536.73,444.08Zm-37.13,3.18c.95-3.6-1.72-8.17-3.75-5.56C497.73,442.89,496.94,446.91,499.6,447.26Zm-63.15,1.48c3.29.32,5.22-5.85,1.8-6.53C437.45,444.21,436.25,445.81,436.45,448.74Zm85.38-6.33c-.52,3.57,6.17,1.25,5.62-1C524.61,440.77,524.06,442.41,521.83,442.41Zm109.68,1.8c.94,0,1.85,0,2.75,0-.25-1.6.87-4.66-1.89-3.69C632.12,441.76,631.09,442.31,631.51,444.21Zm-209,0c-.77,3.51,4.42,1.13,6.54,1.81C429.33,441.76,424.65,443.47,422.48,444.17Zm83.62,3a5.07,5.07,0,0,1,3.73.9c.16-2.67.09-5.05-2.82-4.63C506.71,444.75,505.72,445.27,506.1,447.17Zm-53.79,3.24c5.26,1,3.57-4.82.79-5.56C453.16,447,451.6,447.58,452.31,450.41Zm141.05-1.25c.31-1.41,3.69-4.34,1-5.53C593.51,445.4,589.42,447.94,593.36,449.16ZM430,453.5c1.12-2,6.64-7,.85-7.52C430.55,447.91,427.74,452.06,430,453.5Zm82.57-7.36c-.53,2.92,1.83,2.92,0,4.73a3.77,3.77,0,0,1,2.76.9c1.56-1.51.29-5-.85-6.5C514.28,446,513.73,446.3,512.58,446.14Zm20.52,4.53c-.93-2.22-.31-5.92-3.76-5.56C528.89,448.65,531.38,449.32,533.1,450.67Zm7.38-1a5.05,5.05,0,0,0-4.66-4.6C535.7,448.26,539.08,447.94,540.48,449.64Zm10.26.84c-.53-1.64,1-5.47-1-5.57C548.49,446.14,548.15,450.48,550.74,450.48Zm-129.2.29c2.18,1.45,5.49-1.45,7.48-2.93C425.79,448.16,420.92,446.72,421.54,450.77Zm160.79-.58c.34-2,5,.1,4.55-2.8C584.74,444.3,580.13,449.16,582.33,450.19Zm52,.48c2.67-.19,3.95-1.61,3.75-4.63C635.42,446.23,634,447.65,634.33,450.67Zm-177.45,1.55c2.43.29,3-1.26,2.8-3.7C457.2,448.23,456.59,449.8,456.88,452.22Zm39-3.16c-.1,2.32.57,3.86,2,4.7.43-2,2.17-2.7,1.72-5.6C497.88,447.94,497.62,449.19,495.87,449.06Zm7.51,3.7c1.27.16,1.49,1.52,2.75,1.9,1.36-2,3.18-6.24-.94-6.5-.64,2.8.94,3.32.94,5.54C504.82,454.18,503.81,450.09,503.38,452.76Zm-87.32,4.47c1.42-1.35,3.23-2.34,3.65-4.66-1.16-.06-1.25-1.19-2.77-.9C416.75,453.18,413.87,456.5,416.06,457.23ZM591.56,452c.39,2.16,1.05,4,2.91,4.6.44-1.38-1.11-4.82.87-4.69.31,1.15,2.94,4.4,3.69,1.86-1.64-.09-.5-3.12-1.93-3.7C594.22,449.64,595.12,452.92,591.56,452Zm28,3.48c.69-.68,2.4-6.53-.93-5.63C618.92,452.7,616.15,454.66,619.53,455.5Zm-171.87,3.31c-.22-2.6.79-6.37-1.91-6.53C444.43,453.79,443.87,459.74,447.66,458.81Zm-5.54.1c-.13-1.55,2.89-6-1-5.63C439.85,454.53,439.57,458.91,442.12,458.91Zm68.72.32c.21-1.35,2-1.13,2.8-2,0-2.57-2.24-3.31-3.75-4.53C510.47,454.66,508.77,458.81,510.84,459.23Zm124.47,1.67c.8-1.22,5-4.4.88-7.4-1.8.61.7,5.44-2.7,4.6-.09-2.8,0-5.63-2.84-5.53C628.28,456.94,632.37,459.26,635.31,460.9Zm-236.85-.64c3.08,1.06,4.93-3.76,2.71-4.76C400.39,457.17,397.37,456.78,398.46,460.26Zm20.33-4c-.11,1.71,1.08,2.06,1,3.73,2.62.07,2.69-2.35,2.85-4.73C420.92,455.3,419.61,455.53,418.79,456.3ZM497,462.12c.75-3.6-1.63-4-2.9-5.59-.45,4.15,2.16,6.3,1.05,10.23,3.81-.74,1.81,4.5,5.58,3.69.54-1.54,3.58-5,.85-6.49.19,2.28-2,2.22-2.77,3.73-1.14-3.41,4.22-5.05,1.82-6.56-.22.86-2.4,4.11-2.73,1.86,2.38-.74,3.78-7.2,2.67-8.33C497,456.5,499.55,460.81,497,462.12Zm18.52-4c1.27.32,1.56,1.64,2.87,1.93,1.38-1.45,1.56-6.34-2-5.54C516.61,456.3,515.34,456.53,515.5,458.14Zm115.27,3.76c-.24-3.54-1.36-6.11-4.74-6.5C625.24,459.84,628.28,463.73,630.77,461.9Zm8.29-4.79c.72.25,1,.83.93,1.89,2.41-1,6.25-.64,7.43-2.86C644.27,455.82,640.67,454.11,639.06,457.11ZM401.28,463c3.28,1,5.56-3.54,3.67-4.7C404,460.1,400.85,459.84,401.28,463Zm166.25-2.38c2.38.23,2.38-2,2.75-3.76-.9,0-1.83.06-2.75.06Zm16.78.74c3.67,1.42,6-3.18,3.57-4.66C587,458.55,583.87,458.14,584.31,461.32Zm-53.95-.42c-.93-1-5.09-3.44-6.51-.87C525.54,460.26,528.5,464,530.36,460.9Zm91.07,2c2.91-.61,2.88,1.74,4.7,0-.46-2.73-3.24-3-4.72-4.69C621.41,459.84,621.43,461.32,621.43,462.86Zm27,1.68c-.21-2.8,3.5-5.76-.12-6.57C646.5,459.45,645.7,463.15,648.42,464.54Zm-240.56,16c2.94.61,1.85-2.58,4.68-1.93.24,1.28,1.56,1.51,1.86,2.73a4.69,4.69,0,0,1-2.7,2.86c-.58-1.38.92-4.82-1-4.66-.78,1.38-1.35,3-3.69,2.83.51-4.34-1.55-5.95-2.88-8.3-.57,4-.57,1.84-3.7,0-.86,4.25,2.15,8.3,3.7,4.57a17.53,17.53,0,0,1-1.74,5.6c2.52,1,4.37-2.29,5.6,2.76,4.63-.54,5.29,2,8.31-.09-2.11-2.45-1.78-6.37-.09-9.27.85,1.39,2.39,2,4.71,1.8-1.05-4.66-5.76-4.63-1.05-8.3-2.73,0-4.71,2.74-6.46,1-1.19,2.16,2.47,3.44,0,3.67-1-.13-1.42-1-1.9-1.8,1.59-3.09,5.35-4,7.45-6.57-3.08,1-1.5-2.86-1.9-4.63h-1.9c-2,3,.16,1.77,1,2.8.09,2.89-2.47,3.15-4.7,3.73a4.26,4.26,0,0,0-.93-2.77c.93,0,1.88,0,2.76-.06.07-2.8-.88-4.66-2.8-5.53.84,4.41-3.78,8.36.07,10.26-2.86,1.09.19,2.32-1.77,3.7-1.83-1.61-.15-6.79-3.83-6.47-.1,1.39.39,3.38-.88,3.73,0-.51-.74-1-1,0C405.59,476.37,410.27,475.22,407.86,480.59Zm105.87-12.1c3.17-.42,6.1-3.86,2.74-5.63a7,7,0,0,1-1.8,2.84c-.71-2.87.91-3.45.83-5.6h-3.69C510.47,464.86,515.84,465.85,513.73,468.49Zm7.47,3.61c.72-4.51,4-1.77,6.48-.91-.07-3.69-.56-5.43,2.72-3.79-1.51-4.12-8.09-2.93-9.39-7.37-.12.74-.76,1.1-1.76.94-.37,4.44,5,2.95,6.5,5.53-.21,1.29-2,1.09-2.74,1.86-.51-2.66-1.72-.48-2.84-3.63-.92,2.12-3.12,3-2.72,6.53,3,.74,1.25-3.09,3.73-2.86C522.1,470.13,518.38,471.58,521.2,472.1Zm30.57-6.73c-.19-1.73,3-5.95.84-3.7-2.85,5.05-5.65,15.19-6.29,19.53a8.18,8.18,0,0,1,1.83-2.83c-.11,7.75-3.39,11.9,1,2.77,2.24-4.67,6.18-11.52,5.44-18.6,1.46.1,2.06-4.76.9-1.83C553.73,461.74,553.51,464.28,551.77,465.37Zm-131,2.09c1.92.2,2.14-1.09,3.82-1-.57-1.35,1-4.76-.92-4.6C422.74,463.8,420.68,464.6,420.72,467.46Zm31.67-.32c.71-4.44-2-5.47-5.61-5.47A7,7,0,0,0,452.39,467.14Zm-61.32,1.51c-.16-3.6,4.77-2.12,4.6-5.66C391.6,461.8,388.35,466.18,391.07,468.65Zm96.66-.93c.29-1.61,4.81-3.63,1.72-5.56-.08.74,0,1.83-.82,1.83-.19-1.09-.32-2.09-1.95-1.77C486.07,464.6,485.88,466,487.73,467.72Zm151.33-4.08c1.11.19.62,1.06.11,1.83,2.7-.35,4.52-1.58,5.45-3.73C642.11,460.77,640.26,461.16,639.06,463.64Zm-7.39,3.82c1.34-.32,1.82-1.35,3.75-1,.63-3.08-1.93-3-2.86-4.53-1.71,1.74-.07,2.28,0,4.6C631.67,466.43,630.27,467,631.67,467.46ZM431.1,470.13c2.81.94,5.88-5.43,1.73-5.53C432.34,466.5,430.55,467.24,431.1,470.13Zm14.89.81c.48-3.35,1.75-5.53-2.93-6.47C443.4,467.24,443.67,470,446,470.94Zm133.65-2.16c.81-.61,2.45-6.4-.9-5.53C579.23,464.86,577.6,468.75,579.64,468.78Zm-179.25,3.44c.05-3.44.62-7.49-3.81-6.46C397.71,468.14,397.15,472.16,400.39,472.22Zm77.17.29c-2.46.26-.8-3.63-3.76-2.76.58,2.41-.39,3.34-2.74,2.83,2-1.39.7-10.2-1.89-6.56,2,3.18-5.36,3.31-.9,7.49-1.58,0-3.12,0-4.73.07.56,2.38-.31,3.31-2.72,2.79.45,1.39-1,4.83,1,4.6.91-6.33,9.52-4.6,15.77-7.52.16.67,0,1.8.9,1.86.69-2.15-1.14-6.27-1.86-3.73C477.16,471.61,477.61,471.71,477.56,472.51Zm-4.71-3.73c3.91-.61,5.26,1.84,6.45-.93.18,1.35-.29,3.47,1,3.73,0-.51.78-1.09,1,0,.16.68,0,1.77.9,1.77-.46-4.44,1.16-1,2.82-2.8,0-1.8,0-3.7-.08-5.53l-1.87,0c-2.62-.45.76,5-1.77,4.6C480.89,464,474.06,464.73,472.85,468.78Zm33.42,3.44c.16-1.6,3-7.62-1-7.36C504.41,467.24,503.79,471.07,506.27,472.22Zm118-1c1-3.6,2.78-3.76,2.78-6.56C623.91,464.6,620.22,469.84,624.31,471.26Zm31.54-4.92c2.33-.81,4.26,3.54,5.59.9-1.89-.39-1.88-2.54-3.74-2.8C657.7,465.63,656,465.28,655.85,466.34Zm-234,2.92a2.43,2.43,0,0,0,1.9,2.8c0-1.57,2.47-.54,2.63-1.86C424.7,469.36,423.72,467.24,421.82,469.26ZM539,482.2c-1.54-1.61-.55-5.73-2.93-6.47,2.75,7.85,3.94,20.81,3,26.89,1.5-.67-.21-4.57,2.74-3.76-1.24,3.31-.41,15.54,0,5.63,2.42-3.83-.12-8.37,1.83-11.2,2.52-.7-.63,4.41,1.8,3.73.42-2.18,2.07-7.84.93-8.42a7.45,7.45,0,0,1-1.85,2.83c2-7-1-14.22-4.76-14.8-.79-3.28,1.35-3.6.84-6.59-2.72,1.15-3.43-4.34-4.62-1.77C536.57,472.71,540.27,478.92,539,482.2Zm46.26-11.58a4.43,4.43,0,0,0,3.71-3.77C585.8,466.5,583.5,468.88,585.23,470.62Zm-123.44,4.79c1.25-1.22,1.72-6.5-1-6.5C459.52,470.2,459,475.44,461.79,475.41ZM511,476c2.11-1.52,1.54-5-.07-7.47C509.5,470.49,507.85,474.32,511,476Zm-27.79-.71c2.6.71,2.31-1.35,4.55-.93-.52-1.39,1.06-4.86-.87-4.7C486.23,472.16,483,472,483.18,475.25Zm50.14-1.39c.13-3-1.15-4.4-3.79-4.6C528.8,472.83,531.59,472.87,533.32,473.86Zm103.07,1c.5-1.25,4.18-6.43,0-6.5C635.42,470,632.82,474.06,636.39,474.83Zm-135.62-.71c1.75-.19,2.14,1.13,3.7.93.18-2.31-.5-3.79-1.86-4.66C502.61,472.26,500.05,471.61,500.77,474.12Zm79.94.29c.83,0,1.8-.06,2.79-.06-.29-1.64,1-4.7-2-3.73C581.25,471.87,580.19,472.45,580.71,474.41Zm-55.77,4.18c1.15-1.73,3.88-6.59-1-6.49C524.54,474,522.82,478.21,524.94,478.59Zm52.92-2.31c.88-3.12-3-6.24-4.58-3.67C574.53,474,575.62,475.79,577.86,476.28Zm-59.46,2.38c.37-2.7,5.39-.9,3.76-5.63C517.93,471.45,517.53,478.3,518.4,478.66Zm76.31-.65c.13-.77.63-1.12,1.79-1-.51-1.35,1-4.83-1-4.67C594.84,473.35,591.9,476.66,594.71,478ZM459,481c.19-3.67-1-5.79-3.77-6.53C455.22,478,455.72,481,459,481Zm18.61,1.7c4.42-.13,4.24-6.37,1.75-8.39A20.05,20.05,0,0,1,477.6,482.74Zm-105.93-1.89c-.48-1.74,1.25-5.6-1.95-4.57C368.24,477.6,368.53,481.55,371.67,480.85Zm161.65-2.35c.1-2.9-2.36-3.12-4.71-3.64C527.32,479.08,532.25,476.82,533.32,478.5Zm-36.23,2.15a4.12,4.12,0,0,0,3.68-3.7,4.44,4.44,0,0,1-2.83-.93A6.47,6.47,0,0,0,497.09,480.65Zm-111.47,2c0,1.52,0,3.06,0,4.6,3.83-1,1.06-6.36,6.45-3.73-.51-1.93,1.58-6.53-1.86-5.56C389.28,482.07,388.3,480.56,385.62,482.61ZM564,480.14c3,.19,4.42-1.16,4.55-3.77C565,475.6,565,478.37,564,480.14Zm90.11.09c2.4-.32,3.08-2.47,3.65-4.66C655.22,476,652.33,478.37,654.14,480.23ZM456.27,481c-1.72-.81-1.3-3.73-4.67-2.7C451.15,480.65,454.89,483.55,456.27,481Zm127.23.77c-.17-1.74,1.08-2.06,1-3.76-1.24,0-1.27-1.16-2.88-.84C581.51,479.49,582.09,481,583.5,481.81Zm37.24,4.31a4.35,4.35,0,0,0,2.73-1c.27.7.07,1.83.95,1.83,1.25-5.34.21-8.94-4.68-10.13.27,5.14-1.14.51-3.73.9.13,3.47,1.09,2.67,0,5.63C619.27,481.62,619,484.19,620.74,486.12Zm-227.6-.8c2.61-.23,3.89-1.65,3.57-4.67H394A6.13,6.13,0,0,0,393.14,485.32Zm29.67.67c.91-1.74-2.78-3.05,0-3.73.81,2.12,5.51,5.6,6.52,1.83-2-1.77-4.76-2.7-7.5-3.66C421.45,482.49,419.78,485.48,422.81,486Zm32.53-1.22c-1.11-2.41-6.73-4.95-8.48-3.63C448.61,483.48,450.67,485.48,455.34,484.77Zm31.58-.26c2.88.42,2.53-2.38,3.62-3.76-1.09-.1-1.17-1.19-2.78-.9C488.19,482.07,486.14,481.91,486.92,484.51Zm40.9-.38c.36-2.67,4-2.19,4.56-4.64h-4.69C527.18,480.07,525.67,483.93,527.82,484.13Zm-108.69,4.69c-.34-2.83,1-7.27-1.94-7.43C414.9,484,417.38,487.47,419.13,488.82Zm47.37-1.35c1-1,3.44-5.11.88-6.5-.17,1.1-1.06.52-1.88,0C466.05,482.87,464.42,487.05,466.5,487.47Zm148.59-2.25c.55-3.25-.8-4.79-2.84-5.53C612.34,482.42,612.25,485.38,615.09,485.22ZM650.44,484c1.39-1.42,1.31-5.34-1.88-4.67C648.42,481.65,648.42,483.87,650.44,484Zm-281.52,4.28c3.67,1.48,7.08-5.15,2.75-5.57C370.4,484.19,369.72,486.35,368.92,488.31ZM395,492.78c4.41.26,3.25-8.53,7.35-5.69-.5-1.68-.5-3.83-1.88-4.64.77,3.54-1.9,3.64-3.7,4.7-.5-1.32,3.62-2.32.9-2.83C395.76,487.38,393.38,488.34,395,492.78Zm99.33-8.33c1.48,0,.53,2.54,1.87,2.7.8-1.74,5-4.28.85-5.53C497.36,483.71,494.45,482.71,494.37,484.45Zm-35.3,4c1.49-1.42,4.81-3.48,2.72-5.6H459C460.16,485.38,457.27,488.34,459.07,488.47Zm27-1.16c.08-2.7,0-5.08-2.88-4.7C483,485.38,483.08,487.79,486.06,487.31Zm112.35.87c-.13-3,.86-7.14-2.76-6.53C595.39,485,596.26,487.21,598.41,488.18ZM447,488.56c-2.5-.22,1.27-1.6-.07-3.73-2.91.07-6.64,4.47-2.75,5.6.13-1.13.31-2.22,1.88-1.87C446.1,489.08,446.86,489.59,447,488.56Zm155.1-2.31c-1.59,3.54,0-3.64-1.84-2.77,0,4-1.27,6.72-3.62,10.23-.18-.9-1.29-.67-.94.93C600.25,494.77,604.32,489.69,602.14,486.25Zm-.82,7.46c3.41.26,5.42-.8,5.52-3.76C602.82,489.11,602.14,491.56,601.32,493.71Zm45.41-6.91c.19-1.74-1.05-2-1-3.7-2.33,1.19-2.88-.49-3.66,1C644.49,484.09,643.09,488,646.73,486.8Zm-196,3.57c.3-2.16,3.22-1.74,2.83-4.7C450.09,484.32,448.32,489.18,450.72,490.37Zm129.12-5.76c-2.42,1.38,0,7.4-4.52,6.56.38-2,2.2-2.7,1.7-5.6a4.38,4.38,0,0,1-2.76-.87c-.13,1.36.3,3.38-.89,3.67.4-3-2.35-2.57-3.75-3.6,1.07,5.76,1.71,4.76-.9,9.2,3.74,1.16,2.3-2.7,4.68-2.8.53,1.64-1.09,5.44.92,5.6,1.82-4.6,3,1.7,4.67,2.7.4-1.22,1.38-1.77.94-3.67-2.17.26-3.49-.19-3.76-1.86C577.15,491.17,583.2,488.56,579.84,484.61Zm10.26,7.3c-.5,0-1.09-.06-.9-.9,1.24-1.83,1.69-4.38,2.7-6.5C586.56,484,586.87,493.71,590.1,491.91Zm-187.68,2.61c4.1-.1,2.82-6,1-7.43C403.55,490.08,401.7,491,402.42,494.52Zm204.39-8.27c-.07,2.83,6.22,3.95,6.5.84C610.91,485.8,609.64,484.9,606.81,486.25Zm-247,12.32c4.92-.71,4.65-6.4,6.35-10.26C364.16,491.85,360.46,493.71,359.77,498.57Zm96.53-5.44a5.8,5.8,0,0,0,.95-4.66,4.07,4.07,0,0,1-2.78-.87c-2.62,1.38,1.62,3.73-.92,4.63,0-.51-.74-1.06-1,0C453.82,492.52,454.39,493.52,456.3,493.13Zm139.35-3.08c-2.5.7.71-4.38-1.95-3.7-.74,2-2.72,2.76-2.65,5.56.91,1.25,1.56,2.83,2.8,3.76C595.52,492.49,591.11,489.92,595.65,490.05ZM354.2,495c4.3.16,4.88-3.06,6.42-5.67C356.87,489.69,355.3,492,354.2,495Zm54.7-.52c.82-.64,2.53-6.43-.91-5.5C406.38,490.37,407.62,493.26,408.9,494.45Zm6.5-1.93c.5-2.35-3.22-5.14-4.6-2.73C412.46,490.85,413.1,495,415.4,492.52Zm69.82,1.29a4.52,4.52,0,0,1,2.7-2.8c-.3,2.12.24,3.44,1.82,3.63.61-3.73,2.8-1.6,4.71-2.79,0-.9-.08-1.9-.08-2.77C490.91,492,482.58,484.77,485.22,493.81Zm73.27-.65c1.36-1.44,2-3.63,2.8-5.59C557.77,486.31,556.39,491.91,558.49,493.16Zm-99.42-2.79c-.16,1.67,1.12,2,1,3.6,3.43.93,3.63-4.54.87-4.6C460.77,490.08,460.19,490.53,459.07,490.37ZM579,493c4.53.71,5.27-2.22,6.48-4.73C581.11,487.7,581.37,491.69,579,493Zm35.29-2.15c2.2,0,4.34-.07,6.51-.1C621.24,486.18,614.26,488,614.26,490.85Zm-272.14,7c3.32.22,6-5.92,2.69-6.5C343.89,493.52,341.66,494.32,342.12,497.83Zm27.81-2.06c.95-1.93,4.12-1.54,3.69-4.7C371.19,490.91,367,493.71,369.93,495.77Zm100.4,0c-.13-2.28,1.35-2.89,1.8-4.69-1.29,0-1.29-1.16-2.82-.91C467.8,491.72,468.94,494.55,470.33,495.8Zm-136.57,2.06c-.08-2.73,0-5.6-2.88-5.47C330.88,495.19,330.3,498.54,333.76,497.86Zm112.34-2.8c1.64-.51,3.83-.51,4.62-1.9-1.69-.35-1.69-2.63-4.62-1.83Zm58.55-.51c-.1-2.38-1.42-3.6-3.78-3.7C500.5,493.81,501.75,495,504.65,494.55ZM377.43,503.1c3,.81,2.84-1.48,4.63-1.93-.74-3.5-.48-8.17-4.73-8.26C379.13,499.69,379.89,496.83,377.43,503.1Zm40.8-9.58c.13,2.67,2.14,3.41,3.78,4.53,1.06-2.92,0-2.09-.13-5.53C420.19,492.33,419.87,493.58,418.23,493.52Zm101.29,1.83h2.82c.11-2.31,1.72-3-1-3.76C521.39,493.52,518.77,492.84,519.52,495.35ZM550.21,497c-.56-1.93,1.48-6.43-1.9-5.56C548.94,493.29,546.9,497.86,550.21,497Zm-148.67,7.78c.45-2.38,2.83-2.79,2.83-5.59-3.7.35-1.79-5-4.67-5.5-.06.54-.14,1.09-.95.9-.58,0-1.11.09-.93.9C402.08,497.57,400.09,500.79,401.54,504.74Zm210.93-10.19a20.88,20.88,0,0,0-1.86,5.59c4.08-.12,4.39-5.82,7.38-1.89,1.28-1.29,1.78-6.53-1-6.53-.23,1.12-1,.54-1.77,0C615.91,495,614.37,496.54,612.47,494.55Zm-118,4.76c2-.58,1.17-6-.92-5.6C492.75,494.42,491.07,500.21,494.45,499.31Zm59.48-6.15c-6.34,5.41,3,6.89,0,0Zm-141.15,8.72c1.41-1.67,1.22-6.85-2-6.53C408.89,497.41,411.32,500.4,412.78,501.88Zm144.85-5c0,1.19,0,2.44,0,3.73,3.44-1,2.47-2.06,6.46-1,.23-2.67-.29-4.73-1.91-5.66C563.22,499.31,558.69,494.84,557.63,496.9Zm-192.25,3.5c2.27-.09,3.54-1.38,3.72-3.73C366.12,496.25,364.85,497.54,365.38,500.4ZM388.57,502c.36-1.73,1.95-2.28,1.84-4.63-1.21,0-1.3-1.16-2.82-.87C386.35,497.76,386.06,502,388.57,502Zm56.76-1.38c0-1.83,2.41-1.22,1.8-3.73a3.91,3.91,0,0,1-2.78-.87C444,498.22,442.31,500.05,445.33,500.66Zm52.88-3.25c1.34,0,3.9,3.41,4.7.9C501.85,496.77,499.23,493.71,498.21,497.41Zm106.86,5.53c.1-3.54-2.64-4.18-4.68-5.53,1.45-1.32,7.85,1.58,8.35-2.86-5.24,1.54-10.1-2-11.13,3.83C603,497,600.1,504.07,605.07,502.94ZM502.91,502c2.88,0,6.24-4.82,2.69-5.6C506.13,499.69,502.4,498.7,502.91,502Zm85.44-.74c3.21,1.42,4.37-6.24.88-5.56C588.17,496.77,588.22,499,588.35,501.27Zm32.5-.32c1.56-.81,2-2.9,1.8-5.6-.85,0-1.82.07-2.78.07C621.25,498.25,617.12,501.56,620.85,501Zm-182,4.44c1.24-1.32,1.72-6.53-1-6.53C437.32,500.92,435.62,504.91,438.82,505.39ZM593,502.14c2.78,1.06,4-3.92,1.87-4.7C594.47,499.24,592.24,499.18,593,502.14Zm-24.14.22c1.74-.22,2.06,1,3.72.91-.73-2.87,2.55-1.81,1.78-4.7A6.54,6.54,0,0,0,568.82,502.36Zm76.11-1.6c2,1.93,4.79-.07,4.73-2.77C646.73,497.54,645.84,499.15,644.93,500.76Zm-224.74,6.62c1.63-1.67,1.31-6.82-1.83-6.46C418.46,503.52,417.59,507.29,420.19,507.38Zm123.62-2c4.23-.07,3.36-4.44,2.77-5.6C546,502,542.89,501.79,543.81,505.39Zm15.76-1.13c1.87,0,3.69-.06,5.6-.06a3.63,3.63,0,0,1,.88-2.74,5.9,5.9,0,0,1-4.66-.9C560.91,502,560,502.91,559.57,504.26Zm72.51,3.12c3.45,0,2.62-4.18,2.68-7.46C631.09,501,631.06,503.62,632.08,507.38Zm-268.47.55c3.43.61,2.22-3.35,3.62-4.76C364.61,503.39,363.34,504.84,363.61,507.93Zm94.64-2.77c2.44-.09,4.82-.16,4.68-2.8C460,502,459.1,503.52,458.25,505.16Zm6.59,1.84c.87,0,1.85,0,2.72,0a5,5,0,0,1,.92-2.76c-1.79.29-1.85-1.29-2.77-1.84C466.05,504.55,464,504.39,464.84,507Zm-123.55,2.92a3.93,3.93,0,0,1,2.75,1c1-1.71,3.52-5.76,0-6.56C343.72,506.8,341.71,507.61,341.29,509.92Zm239.69-4c2.35-.06,3.6-1.35,3.67-3.73C581.72,501.82,580.45,503,581,505.93Zm-210,0c.27,4.09,7.33,1.13,7.41-.93C375.13,504.58,373.2,505.39,371,505.93ZM490.86,504c.21,1.74-1.12,2-1,3.7,2.16.2,5.41-3.18,3.75-3.76C493.23,505.55,492.38,503.78,490.86,504Zm3.73,4.57c1.28.2,1.52,1.55,2.77,1.87-.53-1.9,1.37-6.5-1.95-5.6C495.69,506.64,494.45,506.9,494.59,508.57Zm20.43.81c2.91.29,2.91-2.06,2.72-4.7H515C515,506.19,515,507.77,515,509.38Zm109.61-2c.19-1.9,3.47-.87,3.65-2.74C626.59,501.82,621.33,505.45,624.63,507.42Zm-194.08,2.67c-.27-2.67,5.6.7,5.44-1.87C434.81,504.91,427.66,507.48,430.55,510.09ZM572.63,506c-.4,4.47,5.23,2.51,6.45.87C576.73,505.55,575.37,504.68,572.63,506Zm21.33.77c1.94.26.22,4.12,2.85,3.7-.41-2.86,2.34-4.76-1.07-5.59C595.74,506.13,594.12,505.74,594,506.8Zm-146.75,5c2.58.07,2.69-2.28,2.72-4.69h-2.76C447.21,508.7,447.21,510.18,447.21,511.82Zm110.56-1.93c2.72-.06,3.44-2.19,4.58-3.76C558.77,505.45,558.75,508.15,557.77,509.89Zm-184.86.71c2.06-.71,7.24,1.64,6.45-1.9-2.17,0-4.33.07-6.45.07Zm86.37,2.06c2.83,1.09,4-4,1.83-4.7C460.1,509.09,458.47,509.67,459.28,512.66ZM386.06,529c-3.37-.45-10.71,2.8-6.53-.84-3.2-.9-11.3-1.67-13-.83,12.85,7.14,31.95,1.48,39-.32-4.57-.71-13.53-1.8-16.65-.78,1.55.84,4.6.26,5.52,1.74-10.73,1.32-9.83-6.27-16.79-6.3,1,0,.8,1.16-.93,1-.17-1.83,1.09-2.09.93-3.79-3.91-3.22-11.53-7.56-15-8.2C370.51,516.74,377.72,523.47,386.06,529ZM516.9,512.11c3.7.93,7.39-2.77,3.62-3.73C520.25,510.5,517.69,510.5,516.9,512.11Zm97.53.06c1.55,0,3.15,0,4.68,0,.16-1.15,2.69-4.6.9-4.66C618.71,509.6,615.38,509.67,614.43,512.17Zm-179.28,3.41c1.5-1.35,4.83-3.44,2.74-5.56C435.17,509.57,434,515.36,435.15,515.58Zm177.45-2.44c1.43-1.48.58-3.8-1-4.7C610.4,509.67,610.28,513,612.6,513.14Zm9.28-1c3.47.35,5.39-.77,5.53-3.73C625.14,509.18,622.09,509.25,621.88,512.11Zm-235,4.89c3.09.32,5.06-5.11,1.75-5.66C388.93,514.07,386.63,514.23,386.92,517Zm23.2-1.22a5.92,5.92,0,0,0,.86-4.6C407.52,510.28,407.28,515.75,410.12,515.78Zm-52,4.21c1-3.83-2.1-8.46-3.8-6.43C358.19,513.53,352.42,520.6,358.1,520ZM567,510.73c3.54,7.91-3.3,4.95-6.32,7.53-1.26-3.06,1.07-4.48-1.92-4.64-3,.78-3.39,4-4.58,6.5-.24,2.45,3.6.74,2.8,3.67-3.33.58-4.15,2.8-7.45,1,.24,1.77-1,2.06-.88,3.76,11.8-1.32,19.94-1.7,29.67-5.89.66-2.83-2.61-1.76-1.87-4.56-3.79-.62-3.79,2.47-7.51,1.86C569.91,515.46,571.47,513,567,510.73Zm80.9,3.95c1.31-3.31-2.67-5.91-3.83-3.69C645.76,511.82,645.7,514.4,647.89,514.68Zm-247.06,3.09c-.15-2.41-.24-4.82-2.86-4.63C398.1,515.52,398.21,517.93,400.83,517.77Zm13.93.84c1.7-1.26,3.36-6-1-5.6C414.52,515.78,414,517.74,414.76,518.61Zm73.32-.68c3.67,1.45,7.05-5.14,2.78-5.63C490.91,515.1,488.44,515.52,488.08,517.93Zm94-.8c2.41.26,2.41-2,2.7-3.73-1.24.13-3.49-3.16-3.71-.94C583,512.3,581.43,515.75,582,517.13Zm-229.54,3c0-3.19,0-6.21-3.75-5.57C348.91,517.51,349.44,520.09,352.5,520.09Zm93,2c.64-2.12,1.92-3.7,1.79-6.62a4.47,4.47,0,0,1-2.82-.84C445,516.81,443.29,521.34,445.46,522.08Zm176.42-8.14c.21,3.45,3.36,2.61,5.55,1.81C627.24,512.3,624.15,513.24,621.88,513.94ZM452,522c.81-2,2.75-2.74,2.75-5.6H452C452.89,518.8,449.13,520.86,452,522Zm20.37-.23c.41-1.77,2-2.28,1.86-4.63-1.72.22-2-1-3.67-.87C470.53,518.74,470,521.73,472.34,521.76Zm38.21.64c1.74-1.47,2.53-5.24-.08-6.56C509.83,518.64,507.19,520.54,510.55,522.4Zm-34.45.29c.4-1.76,2.64-1.73,1.82-4.66-1.16-.06-1.29-1.19-2.82-.9C475.7,518.74,474.06,522.57,476.1,522.69Zm59.49-1.48c3.68.55,4.07-2.06,4.55-4.66A5,5,0,0,0,535.59,521.21Zm-143.12.33c2.79-.33,7.23,1,7.39-1.9C397.64,517.71,393.14,519.15,392.47,521.54Zm17.69,2.67c.5-3.28-.81-4.8-2.88-5.57C407.28,521.5,406.84,524.75,410.16,524.21Zm114.22-.1c-.66-2-2.73-2.74-4.58-3.67-1.55,4.67,0,7.69,0,13,3.33.19,5.68-.68,6.51-2.87a9.35,9.35,0,0,1-2.84-5.5c2.26-1.28,4,2.67,4.68-.09-1.53-1.19-2.43-8.78-2.82-6.37C525.27,521.7,527.12,522.5,524.38,524.11Zm-123.53.16a5,5,0,0,0,4.61-4.7A5.16,5.16,0,0,0,400.85,524.27Zm34.41-.29c.36-1.8,2.63-1.7,1.79-4.7-.92.07-1.88.07-2.78.1C434.81,520.64,433.22,524.14,435.26,524Zm80.77-.74v-4.6H513.2C513.06,521.34,513.17,523.69,516,523.24Zm92-4.5c-.65,2.47,1.94,1.86,2.83,2.76-.24-1.77,1-2,.85-3.73A5.22,5.22,0,0,0,608,518.74Zm-64.1,6.17c1.53.07,1.52-5.76,0-5.63C543.89,520.86,540,525.24,543.92,524.91Zm-190.42-.19c1.59,1.61,3.61-.35,3.61-2.86C354.74,521.63,353.16,522.24,353.5,524.72ZM553.24,523c.93-3.12-1.31-3.05-3.72-2.73C549.23,522.69,551.48,522.57,553.24,523Zm-49.16,9.75c.66-7.24-3.31-9.84-8.46-11.1C497.2,526.46,502.4,527.81,504.08,532.7Zm98.35-7.4c.34-2.44-.32-4-2.84-3.7C599.35,524,600.1,525.62,602.43,525.3Zm-23.12,3c3-.42,5-1.8,8.21-1.93C587.48,519.51,579.56,524.46,579.31,528.26ZM354.49,533c4.91-.07,5-4.89,7.32-7.46C356.87,525.62,355.62,529.22,354.49,533ZM493,543c.9-6.59-9.09-11.26-14.08-11.94,0-1.67,2.46-5.4,0-6.49a5.18,5.18,0,0,1-4.69,4.69c-.79-2,0-5.56-3.72-4.6,1.4,3.86-3.73,5.15-6.45,4.67C469.25,538.42,485.43,536.33,493,543Zm-73.52-11.42h2.81c.41-3.31-.88-4.79-2.91-5.57C420.19,529.16,417.73,529.9,419.52,531.54Zm180.18-5.28c.15-2-3.28-.38-4.63-.86C593.85,530,599.43,529.48,599.7,526.26Zm-190.35,9.08c4.52.74,1.31-6.08,4.57-6.5C410.4,529,408.89,531.28,409.35,535.34Zm14.86-2.93c3,.61,3.33-1.55,3.64-3.73C424.94,528.23,425.24,531,424.21,532.41Zm12,.87c2.8,1.09,3.94-4,1.78-4.64C436.81,529.9,433.82,531,436.23,533.28Zm6.48.83c6.76-1,12.74,4,17.69,1.71-3.28-1.32-8.55-4.57-7.51-7.34-3.7,1.13-7.22,3-10.18.1C439.3,530.48,443.29,530.22,442.71,534.11Zm165.47-2.38c2.55.1,2.6-2.38,2.67-4.63C608,526.71,607.92,529.1,608.18,531.73Zm11.09-1c3.61,1,3.32-3.34,5.55-1,.23-2.48-1.94-2.38-3.76-2.77C620.66,528.39,619.77,529.35,619.27,530.7Zm-259.13,6c3.39,1.16,3.62-5.5,1.78-6.56C359.9,531,359.77,533.63,360.14,536.72Zm7.33-2c-.35-1.74-.32-4-2.78-3.64C364.42,533.53,364.42,535.69,367.47,534.76Zm123.6-1.06c2.48,1.7,8.16,4.92,7.51,4.6-1.75-2-7.41-8.95-6.61-7.37C493.94,533.92,491.88,532.7,491.07,533.7Zm80.84.22c6.3,1.87,15.78,2.09,18.53-3.89C584.13,531.41,576.56,529.35,571.91,533.92ZM416.75,535.3c2.77,2.58,4.59-1,5.58-2.86C419.52,532.41,417.62,533.34,416.75,535.3Zm92,3.8c0-3-.49-5.66-1.92-7.4C507.17,534.5,505.89,538.94,508.77,539.1Zm83.56-4.41c2.71.65,6.58-2,3.77-3.76C595.65,533,590.58,530.48,592.33,534.69Zm-210.8,2.74c.51.06,1.08.19.88.93.12.58.13,1.12.95.93.73-2.8,3,.52,4.67,0-.34-2.12.19-3.57,1.73-3.76,1.37,1.57,6.13,3.21,5.63-1C388.57,534.76,384.25,532.63,381.53,537.43Zm52.91-.45c1.87-.55,6.16,1.12,6.49-1-1.08-.16-1.5-1-1.84-1.8,1.3,0,3.52-.26,1.84-1C439.09,534.18,433.67,536.49,434.44,537ZM533,545.43c.32-2.09,7-5.91,4.59-4.72-1.71-.84-3.11,2.76-3.75,0a143.28,143.28,0,0,1,13.88-8.4C539.92,534.11,531.59,539.87,533,545.43Zm80.76-9.1c2.15-.64,4.23-1.28,4.6-3.73-2.87.68-3.38-1-5.63-.9A6.11,6.11,0,0,0,613.76,536.33Zm-192.31,5.41c.21-1.61,1.62-2.13,3.68-1.87-.48-1.64,1.11-5.5-.92-5.6C425,537.94,418.79,539.39,421.45,541.74Zm5.53-2.8c3.41,1.38,5.15-3.51,2.77-4.7C429,535.85,427.54,537,427,538.94Zm101.36,3.73c.88-3.41,6.82-6.69,5.47-9.39C532.25,536.08,526.94,540.06,528.34,542.67Zm-178.4-1.22c.39-2.67,4.84-1.39,3.7-5.63h-2.85C351.53,538.23,347.19,540.19,349.94,541.45Zm5.53.87c3.46-.13,6.6-5,1.87-5.57C356.76,538.62,355.06,539.42,355.47,542.32Zm-11.11-.87h2.75c-.21-1.64.93-4.64-1.86-3.64C345,539,343.89,539.58,344.36,541.45Zm53.91.51c3.91.19,5.49-2,6.39-4.73C400.77,537,400,540,398.27,542Zm173.78,1.29c-1.73-2.38,1-3.31-1-4.7-.37,1.64-1.28-.13-2.81.07.16,4,1.46,6.62,4.68,7.39.42-3.34,3.15-4.31,3.67-7.49a4.21,4.21,0,0,1-2.79-.9C574,540.32,573.61,542.35,572.05,543.25Zm-180.37-3.12c-6.06,6.66,3.1,7.94,0,0Zm-6.44,7.52c1.1-2.08,3.11-3.08,3.69-5.62a4.23,4.23,0,0,1-2.78-.94C386.63,543.47,382.94,546.43,385.24,547.65Zm62.2-4.24c-1.16-.1-6.68-.1-3.65.93,5.34.07,10.36-.26,13-2.89-5,2-9.56-3-14.88.09C444.43,543.12,446.17,540,447.44,543.41Zm-31.54,4.86c0-2.42.58-5.44-1.9-5.54C412.62,544.15,412.46,549.17,415.9,548.27Zm168.17-7c-1.29,0-2.56,0-3.7,0C579.64,544.82,584.82,544.82,584.07,541.25Zm-211.8,6.47c2.84-.51,6.56-.23,6.44-3.76A6.6,6.6,0,0,0,372.27,547.72Zm53.89,1.45c2.45.25,2.4-2,2.8-3.74-1.42-.25-1.62-1.51-2.8-1.83C425.08,546.53,426.08,545.66,426.16,549.17Zm65.91-1.52c5,2.1-4.45-3.73-9.28-3.66.11-1.38-2.65-.58-1,0A107.83,107.83,0,0,1,492.07,547.65Zm20.15,3.77c1.42-3,12.08-3.73,12.39-7.79C522.79,545.57,511.05,549.65,512.22,551.42Zm-106.45-3.93c-3.25-1.06-2.77,6.79.91,4.57C407.46,549.46,405.3,549.68,405.77,547.49Zm5.55,2.67c-1.29-1.7-1.16-5-4.72-4.59C405.94,549.55,408.84,552.42,411.32,550.16Zm-60.38,2.42c.18-1.52,3.1-4.86.88-5.6C351.13,548,348.2,551.32,350.94,552.58Zm24.17.7c.58-2.18,3.06-2.5,3.7-4.63C376.33,545.47,372.54,551.71,375.11,553.28Zm27.86-.22c-.23-2.93-.77-5.57-3.75-5.57C398.88,551,401.25,551.71,403,553.06Zm35.28-4c.2,1.77-1,2-.93,3.7,5-.29,8.85-1.74,11.13-4.73C444.22,547.49,442.71,549.75,438.25,549Zm61.12,24.8c2.19-2.77,3.35-6.5,3.64-11.13-4.07-1.29.09,5.56-2.69,5.59-.45-5.69.29-10.8-.22-13.92-.87-6.86-.73-4.67-1.79.93-.66,3.38-.19,18.14-2.54,22.64.58-3.95.39-6-.08-7.33-2.06-12.19-5.18-17.72-9.46-22.39,3.14,4,4.54,22.55,2.94,25.77,4.91-4.34,2.45-13,1.34-16.38,3.25,9.33,4,24.23.35,29.12-3.82,6.75-5.14,24.44-3.24,30.68,1.3-2.06,1.83-16,5.13-25,2.49-7,2.3-7.49,2.87-13.41m-127-23.81c1-1.38,3-2,2.8-4.66-.95,0-1.89,0-2.8,0C368.07,551.1,366.46,555,368.6,555.21Zm28.79,1.61c.78-2.25,1.62-5.34-1.85-5.53C394.36,552.54,395.39,556.15,397.39,556.82Zm22.32-1.09c-.13-2.38-.19-4.83-2.85-4.67C415,552.93,417.62,555.05,419.71,555.73Zm-12.09.06c.72.2,1.07.77,1,1.87,1.66-1.13,5.38-.19,6.45-1.9C412.25,555.83,408.69,551.93,407.62,555.79Zm19.57,2.61c.15-2.64,0-5-2.81-4.57C424.21,556.41,424.3,558.85,427.19,558.4Zm-38.08,2.19c2-2,.27-5.05-1.9-5.54C387.22,557.53,386.72,560.52,389.11,560.59Zm10.19-2.83c-.42,2.92,1.21,3.76,2.78,4.63-.54-3.48.12-8-1-6.56C401,556.92,400.12,557.27,399.3,557.76ZM509.44,622c4.52,7.63-11.56-10.68-6.53-14,1.26,3.63,7,11.38,10.15,13.12-1.13-5.85-8.69-13.77-9.27-17.72-.22,1.06.13,2.6-.88,2.73-1.66-21.36,14.25-27.7,6.59-49.05C512,581.27,497.73,602.56,509.44,622Zm-10.15-37.28c-1.08,6.66-4.7,15.35-2.94,22.36-5.58-1.35-.94,7-8.3,7.46,2.46,4.12,4,5.34,2.81,8.52,3.51-.48,11.36-.77,5.58-2.76,1.29-.16,3.42.29,3.61-1-1-.16-8.74-2.12-9.19-2.9,1.11-.19,2.67.17,2.77-.86-.74-.32-1.88-.1-1.88-1,2-1.16,2.19-4,3.66-5.63-1,5.5,9.54,11.55,7.5,15,4.12,1.19,5.45,7,10.26,2.7-2.2-.32-3.5-1.47-6.53-.9C494.45,606.65,499.6,593.49,499.29,584.71Zm-89.7-17.79c1-5.66,1.16-1.64,4.6-1v-3.67c-1.19-1.25-4-.87-6.49-.87C407.7,563.8,407.25,566.89,409.59,566.92Zm91.5,11.58c4.38-1.64,9.67-14,6.34-15.57C507.83,568.56,503.67,575.8,501.09,578.5Zm15.06-3c-.65-3.34,2.89-8.23.8-8.39-.05,1.77-.48,3.15-1.77,3.76-.9-3.15-.38-7.65-2.89-9.23.59,2.44-1.15,7.37,1.11,8.3.17-.71,0-1.8.88-1.83C514.88,570.62,514.7,574,516.15,575.54Zm4.61-3.69c.55-2,1.4-2.06,2.8-1.07V568C520.68,566.89,518.25,570.75,520.76,571.85ZM505.6,602.34c-.29-10.07,2.51-15.09,2.23-22.07C504.55,586.83,503,593,505.6,602.34Zm9-20.56c-5.62,6.79-11.46,22.71-6,34.42-4.11-12.77,5.12-29.75,6-34.42M513,594.88c-4.26,10.45,3.84,1.41,2.73-3.8C514.8,593.33,513.43,593.65,513,594.88Zm-28.7,21.58c.89-1.51,3.46-5.73.89-7.46C485.57,611.6,481.76,614.66,484.33,616.46Zm0,8.59c1.74-1.77-.37-5.89-2.77-8.59C482.08,620.45,482.58,622.89,484.32,625.05Zm38.13,1.48c-2.7,0-3.47-2.09-4.71-3.7.51,0,1-.71,0-.87C514.83,624.41,520.89,628.81,522.45,626.53Zm-31.59,3.09c.58-.78,4.31-2.93,4.72-.94-2.5.1-6.66,3.19-4.67,4.67,0-1.23,2.56-1.23,2.85-.07-1,.07-.81,1.23.83.94-.22-2.19-2.38-4.35,1.85-3.77v-2.7C495.09,625.4,487.73,627.65,490.86,629.62Zm7.37-5.63c-2.82-.29-9.13.74-6.48,2.8C492.89,624.82,497.36,626.21,498.23,624Zm11.23,6.4c4.32-.39,6.95-.07,3.73,2.7,2.73.16,5.66-3.6,6.56,0-1.5.1-3.27-.13-2.85,1.83,1.69.58,5.44-1.15,5.6.94-1.11.06-2.14.22-1.82,1.86h3.62c-1.8,1.8.55,1.77,1.08,3.64-2.16,1.32-3.6,3.25-5.55,4.73,9.33.67,16.71,5.92,25.07,2.5-6.19-2.73-11.06-3-16.72-2.6,1.59-3,5.27-.23,6.48-1.87-1.8-.42-2.37-2-4.68-1.86-1.09,1.7-4.92,5.47-7.35,2.86.93-2.73,6.34-1,7.35-3.76-3.12-2.58-9.73-8-6.53-11.1C520.14,629.39,511.93,626.11,509.46,630.39Zm-4.64,2.8c-1-.1-1.59-1.55-4.64-.9C503.23,636,514.25,633.86,504.82,633.19Zm31.64,5.3c1.14-1.28,5.28-1.51,2.83.9,1.62-.51,3.84-.48,4.6-1.89-1.08-.13-2.6.22-2.8-.9,1.61-1.68-9.45-3.38-11.11-1.77.63.19,1.82,0,1.82.9-.7.29-1.82,0-1.82.9,3.44,1.25,6.42-2.77,8.36,0C537.94,637.14,533.81,638,536.46,638.49Zm-40.84,1.29c-2.54-1.74-2.73-.61-1.86-4.63H490c-.33,1.61,1.42,2.41,0,2.83-6.54.93-13.89,5.92-14.74,9.36.61-1.8,2.36-2.44,4.58-2.73.07.9-.68,1.09-.87,1.86,1.34-.58,4.81,1,4.55-1-1.43.65-4-1.8-1.81-1.86.67,2.15,5.72-.16,6.56,1.83-2.78-4.28,2.25-1.54,3.67-3.76-1.65-.8-4.72-.32-5.57-1.83C489.37,639.17,498.21,640.84,495.62,639.78Zm4.64-2.83c2.84.77,9.73.23,11.06-1C506.05,634.31,501,637.14,500.26,637Zm54.79,3.22c1.92,3.12,1.87,1,0-1-3.87-.71-6.33-2.83-10.21-3.57-.55,0-1.08.74,0,.87C548.73,637.24,550.86,639.78,555.05,640.17Zm-53.84-.45c3.44-.33,17,.58,13-1.07-4.26.55-15.67-1.25-14,2C500.32,640.1,500.4,639.52,501.21,639.72ZM547.72,644c-5.76-.06-7.24-4.57-14-3.63C535.37,644.7,543.89,647.5,547.72,644Zm-44.62-1.44c-1,.06-.7,1.18.87.93,4.8-.68,4.22-1,9.38-.16C526.25,643.7,506.05,639.85,503.1,642.52Zm-18.46,4.76c12.13,0,24.41-.42,33.29-1.19C504.37,645.12,494.82,645,484.64,647.28Zm67.66-.52c-2.89.42-3.23-1.67-6.53-.9C544.71,648.88,552.13,648.08,552.3,646.76Z"/><path class="cls-3" d="M482.4,621m-22.82-84.91,85,29.49"/><polygon class="cls-6" points="695.08 685.65 337.61 724.81 325.01 620.22 682.35 581.21 695.08 685.65"/><path class="cls-7" d="M642.16,639.85c-14.47,2.63-18.42,3.37-31.07,4.53-.6-5.18-1-5.89-1.53-11.13-.29-1.86-.39-2.8-.63-4.76a174.84,174.84,0,0,0,44.46,8.11C649,638.37,646.63,638.62,642.16,639.85Z"/><path class="cls-7" d="M364.93,638.37c13.22-9.08,24.83-17.63,38.89-25.64.21,1.93-.06,1.57.16,3.44.58,5.21.68,8.07,1.32,13.32a137.36,137.36,0,0,0-31.23,6A86.73,86.73,0,0,0,364.93,638.37Z"/><path class="cls-8" d="M327.34,639.68c23.78-15,47.15-25.38,75.76-28-3.9,2.12-5.94,3.25-9.88,5.63a313.34,313.34,0,0,0-30,21.29c1.21,9.94,1.56,15.51,2.78,25.58.18,1.6.31,2.47.52,4.08-13.61,5.24-20.35,8.65-33.59,18.21,1.39-2.77,2.06-4.09,3.45-6.76,6.75-13.44,10.21-19.72,17.17-31.62a127.22,127.22,0,0,0-21.61-7C330.13,640.52,329.21,640.26,327.34,639.68Z"/><path class="cls-8" d="M664,637a153.48,153.48,0,0,0,22,9.14c1.78.54,2.67.8,4.37,1.28-13.07,9.52-19.84,13-33.48,18.3-.23-1.57-.34-2.47-.5-4-1.18-10-1.8-15-3-25-13.27-.52-20-1.68-33.49-5-4.41-1.13-6.53-1.71-11-3.09,28.69-2.54,52.06-12.87,75.8-27.89-1.43,2.9-2.07,4.28-3.5,7.17C674.41,620.19,670.93,626.05,664,637Z"/><path class="cls-8" d="M368.92,688.74c-.23-2-.32-3-.58-5-1.85-15.6-2.73-23.42-4.63-39.08-.26-2.16-.42-3.25-.74-5.41,97.11-29.53,193.53,27.41,290.5-2.19.29,2.19.32,2.84.54,5,1.9,15.64,2.79,23.49,4.68,39.05.29,2,.44,3,.7,5.06C562.35,715.74,465.93,659.21,368.92,688.74Z"/><path class="cls-4" d="M374.07,654.42c-.26-1.55-.58-3.44-1.53-4.51l4.73-.83c-.58,1.38-.23,3.18,0,4.76l2.88,16.56,2.7-.48a7.24,7.24,0,0,0,5.18-3l0,3.44c-.79.2-1.5.36-2.27.49L376,672.56c.89-1.55.1-6.6-.22-8.2Z"/><path class="cls-4" d="M394.93,668.22l4.18-.42a9.07,9.07,0,0,0,6-2.64l-.33,3.31c-.93.16-2.14.39-3.42.58l-10.36,1a8.15,8.15,0,0,0,.4-4.73l-1.32-13.48c-.12-1.61-.33-3.47-1.19-4.63L401.28,646l.42,2.73c-1.31-1-3.33-1-5.39-.8l-3.38.35.87,8.56c2.72-.23,5.65-.55,8.38-1-1.06,2.12-5.11,2.51-7.25,2.76l-1,.07Z"/><path class="cls-4" d="M424.65,668.06,420.42,658l-8.09.22c-1.42,3.22-3,6.76-3,8.82a13.15,13.15,0,0,0,.21,1.38l-4.48.06.72-1.06c1.95-2.57,9.05-18.24,9-21.16l.05-.94,4.21-.09c2.48,7,5,14.79,8.7,21.45l.79,1.26ZM417.11,649c-.05-.29-.36-.87-.63-.87s-.58.71-.58.87l-3,7.82,6.91-.16Z"/><path class="cls-4" d="M445.52,665.35a17.65,17.65,0,0,0,2.88,3.51l-2.94-.13c-1.59-.1-2.19-.93-3-2.06l-4.06-6.5c-1.45-2.21-1.67-2.83-3.71-3.12l-.28,6.5c-.12,1.64-.17,3.51.6,4.76l-5-.22a8.37,8.37,0,0,0,1.12-4.89l.58-13.29c.08-1.64.16-3.47-.58-4.72,3,.12,5.92-.1,8.72,0,3.62.16,5.48,2.18,5.35,5-.11,3.35-3,5.31-5.56,6.27Zm-10.8-9.68a7.31,7.31,0,0,0,1.67.19c3.46.13,5.44-1.64,5.6-5.05.13-3.63-1.92-4.11-5.1-4.34l-1.72,0c0,.51-.13,1.16-.13,1.7Z"/><path class="cls-4" d="M449,668.92c1.55-2.83,1.9-7.2,2.16-10.32L452,651c.18-1.81.23-3.7-.78-4.89l3.61.38c.81,0,1.08,0,1.4.65.68,1.09,2.61,5.08,3.62,6.81l6.11,10.65c.21.39.54,1,.76,1s.21-.36.21-.68l1.29-12.61a10.25,10.25,0,0,0-.47-4.66l3.68.32a11.3,11.3,0,0,0-1.54,5.27l-1.3,14.29a32.63,32.63,0,0,0-.2,3.34l-2.57-.22-11.4-19.82c-.16-.22-.24-.42-.36-.42s-.27.2-.27.45l-.87,9.2c-.22,2.87-.58,6.47.27,9.3Z"/><path class="cls-4" d="M477.5,670.63l-3,1.41-1.39-2.63,3.07-1.48Z"/><path class="cls-4" d="M494.9,655.67c.19-1.57.45-3.47-.21-4.73l4.78.61a9.39,9.39,0,0,0-1.35,4.54l-2.35,16.6,2.7.38a7.14,7.14,0,0,0,5.9-1.22l-1.14,3.22c-.71,0-1.48-.1-2.23-.13l-9.83-1.32c1.32-1.29,2.06-6.31,2.36-8Z"/><path class="cls-4" d="M510.55,674.75l4.05.58a9,9,0,0,0,6.39-1.2l-1.06,3.19c-1-.06-2.19-.13-3.45-.29l-10.3-1.42c1-1.15,1.28-3,1.56-4.56l1.86-13.35c.23-1.64.45-3.48-.14-4.73l12.37,1.64-.18,2.83c-1.13-1.29-3-1.77-5.13-2.09l-3.32-.42-1.15,8.46a78.16,78.16,0,0,0,8.46.9c-1.56,1.9-5.62,1.32-7.84,1.06l-.86-.16Z"/><path class="cls-4" d="M539.68,680.15l-2.53-10.52-8.07-1.06c-1.93,2.9-4,6.24-4.23,8.27a6.55,6.55,0,0,0-.15,1.41l-4.45-.58,1-.9c2.36-2.31,11.66-16.72,12.12-19.59l.1-1,4.25.58c1.36,7.43,2.63,15.44,5.4,22.52l.48,1.42Zm-4.52-20c0-.25-.16-.86-.5-1s-.55.64-.69.77l-4.09,7.3,6.79.87Z"/><path class="cls-4" d="M547.72,662.72c.16-1.65.32-3.48-.31-4.76,2.87.25,5.66.16,8.46.51,4.52.42,6.34,3.15,6,6.66-.33,4.08-3.25,6.91-7.55,6.46-1.88-.16-2.38-.58-3-1.15,2.82,0,6.2-.13,6.74-5.34.34-2.77-.25-5-3.92-5.41l-2.82-.29-1.83,17.11c-.11,1.42-.29,3.42.48,4.73l-4.93-.48c1-1.19,1-3.18,1.25-4.63Z"/><path class="cls-4" d="M563.22,681.4l-2.94,1.45-1.53-2.57,3-1.58Z"/><path class="cls-4" d="M578.89,665.35c.08-1.67.1-3.53-.68-4.76l4.78.13c-.76,1.22-.82,3.09-.9,4.7l-.58,16.76,2.8.13a7.15,7.15,0,0,0,5.68-1.9l-.79,3.31a16.2,16.2,0,0,1-2.19.1l-10-.32c1.09-1.36,1.39-6.47,1.51-8.11Z"/><path class="cls-4" d="M596.5,682.4l4.13-.09a9.09,9.09,0,0,0,6.21-2.13l-.63,3.32c-1,0-2.13.19-3.44.19l-10.44.22a8.48,8.48,0,0,0,.82-4.66l-.22-13.58c-.08-1.57-.08-3.5-.82-4.69l12.46-.23.21,2.8c-1.28-1.09-3.21-1.32-5.35-1.25l-3.33,0,.16,8.56a82.86,82.86,0,0,0,8.47-.36c-1.23,2-5.38,2.16-7.63,2.16h-.84Z"/><path class="cls-4" d="M626,682l-4.9-9.65-8,.81c-1.24,3.25-2.56,6.88-2.32,8.91,0,.48.12.93.21,1.38l-4.42.39.61-1.06C609,680,614.92,664,614.58,661v-1l4.13-.38c3.09,6.88,6.11,14.44,10.36,20.75l.71,1.19Zm-8.84-18.43c-.11-.26-.39-.83-.69-.77s-.52.68-.53.87l-2.34,7.94,6.78-.61Z"/><path class="cls-4" d="M627.94,663.46c-.34-1.55-.67-3.38-1.65-4.44,3.49-.71,7-1.8,10.6-2.55,5.93-1.18,10.84,2.42,12.09,8.72,1.62,7.85-2.93,13.35-9.57,14.74-3.52.74-6.1,1.06-8.56,1.57.53-1.35.16-3.15-.2-4.73Zm6,13.31c.6,2.54,1.32,2.54,5.15,1.74,6.22-1.32,7.57-6.18,6.41-12-1.28-6-5.37-9.23-11.66-7.91a20.14,20.14,0,0,0-3.28.93c.12.55.24,1.13.31,1.71Z"/><path class="cls-3" d="M327.59,293.05a3.08,3.08,0,0,1-4.62-.54,3.23,3.23,0,0,1,.32-4.7c1.43-1.29,3.31-1,4.63.55a3,3,0,0,1-.33,4.66Z"/><path class="cls-3" d="M320.49,299.65a3.19,3.19,0,0,1-4.58-.58,3.23,3.23,0,0,1,.34-4.73c1.43-1.32,3.31-1,4.61.55a3.14,3.14,0,0,1-.27,4.69Z"/><path class="cls-3" d="M335.66,286.62a3.42,3.42,0,0,1-4.12-5.43c1.47-1.26,3.36-.94,4.67.7a3.2,3.2,0,0,1-.55,4.73Z"/><path class="cls-3" d="M344.76,279.9a3.18,3.18,0,0,1-4.55-1,3.25,3.25,0,1,1,5.31-3.76,3.28,3.28,0,0,1-.76,4.76Z"/><path class="cls-3" d="M354,273.63a3.08,3.08,0,0,1-4.48-1.19,3.14,3.14,0,0,1,.77-4.6,3.45,3.45,0,0,1,3.73,5.79Z"/><path class="cls-3" d="M363.68,267.68a3.43,3.43,0,0,1-3.37-6,3.08,3.08,0,0,1,4.46,1.26,3.24,3.24,0,0,1-1,4.7Z"/><path class="cls-3" d="M373.47,262.17a3.14,3.14,0,0,1-4.37-1.51,3.19,3.19,0,0,1,1.19-4.56,3.23,3.23,0,0,1,4.48,1.51,3.19,3.19,0,0,1-1.28,4.56Z"/><path class="cls-3" d="M383.52,257.13a3.2,3.2,0,0,1-4.35-1.71,3.36,3.36,0,0,1,1.43-4.57,3.44,3.44,0,0,1,2.92,6.21Z"/><path class="cls-3" d="M393.77,252.46a3.45,3.45,0,1,1,1.67-4.47,3.22,3.22,0,0,1-1.64,4.44Z"/><path class="cls-3" d="M404.21,248.22a3.44,3.44,0,1,1,1.91-4.41,3.21,3.21,0,0,1-1.91,4.41Z"/><path class="cls-3" d="M414.72,244.48a3.47,3.47,0,0,1-2.1-6.59,3.45,3.45,0,0,1,2.1,6.56Z"/><path class="cls-3" d="M425.58,241.11a3.45,3.45,0,0,1-1.77-6.66,3.28,3.28,0,0,1,4,2.44,3.32,3.32,0,0,1-2.17,4.22Z"/><path class="cls-3" d="M436.5,238.21a3.43,3.43,0,0,1-1.49-6.69,3.09,3.09,0,0,1,3.84,2.61,3.14,3.14,0,0,1-2.35,4.08Z"/><path class="cls-3" d="M447.29,235.86a3.22,3.22,0,0,1-3.74-2.83,3.24,3.24,0,1,1,3.79,2.83Z"/><path class="cls-3" d="M458.5,233.84a3.26,3.26,0,0,1-3.68-2.93,3.22,3.22,0,0,1,2.75-3.86,3.11,3.11,0,0,1,3.68,2.86,3.17,3.17,0,0,1-2.73,3.93Z"/><path class="cls-3" d="M469.67,232.36a3.43,3.43,0,0,1-.66-6.82,3.11,3.11,0,0,1,3.55,3.05,3.16,3.16,0,0,1-2.88,3.77Z"/><path class="cls-3" d="M480.72,231.36a3.43,3.43,0,1,1,3.1-3.7,3.37,3.37,0,0,1-3.06,3.7Z"/><path class="cls-3" d="M492.12,230.78a3.43,3.43,0,1,1,3.23-3.6,3.21,3.21,0,0,1-3.14,3.6Z"/><path class="cls-3" d="M503.23,230.72a3.49,3.49,0,0,1,.2-6.95,3.31,3.31,0,0,1,3.18,3.54,3.25,3.25,0,0,1-3.35,3.41Z"/><path class="cls-3" d="M514.56,231a3.15,3.15,0,0,1-3-3.6,3.22,3.22,0,1,1,3,3.6Z"/><path class="cls-3" d="M525.86,231.87a3.23,3.23,0,0,1-2.91-3.69,3.28,3.28,0,0,1,3.62-3.16,3.34,3.34,0,0,1,3,3.77,3.21,3.21,0,0,1-3.62,3.08Z"/><path class="cls-3" d="M536.77,233.13a3.24,3.24,0,0,1-2.61-3.83,3.24,3.24,0,1,1,2.7,3.83Z"/><path class="cls-3" d="M548.14,235a3.37,3.37,0,0,1-2.58-4,3.25,3.25,0,0,1,3.86-2.83,3.22,3.22,0,0,1,2.59,4,3.32,3.32,0,0,1-3.86,2.8Z"/><path class="cls-3" d="M559,237.09a3.13,3.13,0,0,1-2.3-4,3.21,3.21,0,0,1,4-2.71,3.26,3.26,0,0,1,2.36,4.09,3.15,3.15,0,0,1-3.92,2.61Z"/><path class="cls-3" d="M569.91,239.82a3.2,3.2,0,0,1-2.1-4.09,3.3,3.3,0,0,1,4.1-2.54,3.26,3.26,0,0,1,2.19,4.18,3.29,3.29,0,0,1-4.11,2.48Z"/><path class="cls-3" d="M580.71,243a3.45,3.45,0,0,1,2.22-6.53,3.16,3.16,0,0,1,2,4.18,3.23,3.23,0,0,1-4.16,2.35Z"/><path class="cls-3" d="M591.55,246.57a3.2,3.2,0,0,1-1.89-4.31,3.26,3.26,0,0,1,4.27-2.09,3.44,3.44,0,0,1-2.37,6.44Z"/><path class="cls-3" d="M601.84,250.56a3.14,3.14,0,0,1-1.58-4.31,3.23,3.23,0,1,1,6,2.45,3.08,3.08,0,0,1-4.29,1.86Z"/><path class="cls-3" d="M612.25,255.07a3.45,3.45,0,1,1,4.4-1.74,3.23,3.23,0,0,1-4.37,1.77Z"/><path class="cls-3" d="M622.38,260a3.16,3.16,0,0,1-1.32-4.48,3.26,3.26,0,0,1,4.55-1.54,3.1,3.1,0,0,1,1.24,4.5,3.16,3.16,0,0,1-4.47,1.55Z"/><path class="cls-3" d="M632.2,265.3a3.25,3.25,0,0,1-1-4.57,3.17,3.17,0,0,1,4.47-1.38,3.23,3.23,0,0,1,1.15,4.6,3.17,3.17,0,0,1-4.53,1.35Z"/><path class="cls-3" d="M642,271a3.08,3.08,0,0,1-1-4.54,3.25,3.25,0,1,1,1,4.6Z"/><path class="cls-3" d="M651.36,277.17a3.44,3.44,0,0,1,3.92-5.63,3.41,3.41,0,0,1-3.79,5.66Z"/><path class="cls-3" d="M660.64,283.79a3.27,3.27,0,0,1-.51-4.66,3.32,3.32,0,0,1,4.77-.84,3.17,3.17,0,0,1,.4,4.7,3.12,3.12,0,0,1-4.63.8Z"/><path class="cls-3" d="M669.47,290.61a3.41,3.41,0,1,1,4.74-.61,3.2,3.2,0,0,1-4.71.64Z"/><path class="cls-3" d="M678.14,298a3.27,3.27,0,0,1-.16-4.73,3.13,3.13,0,0,1,4.68-.42,3.26,3.26,0,0,1,.27,4.7,3.31,3.31,0,0,1-4.79.45Z"/><path class="cls-3" d="M686.32,305.41a3.14,3.14,0,0,1,0-4.67,3.2,3.2,0,0,1,4.73-.22,3.46,3.46,0,0,1-4.77,5Z"/><path class="cls-3" d="M694.27,313.48a3.5,3.5,0,1,1,4.79,0,3.15,3.15,0,0,1-4.72,0Z"/><path class="cls-3" d="M702.07,321.78a3.39,3.39,0,0,1,5-4.5,3.4,3.4,0,0,1-5,4.53Z"/><path class="cls-3" d="M709.13,330.27a3.47,3.47,0,0,1,5.45-4.24,3.23,3.23,0,0,1-.58,4.66,3.33,3.33,0,0,1-4.8-.35Z"/><path class="cls-3" d="M716.08,339.22a3.34,3.34,0,0,1,.93-4.64,3.19,3.19,0,0,1,4.68.58,3.44,3.44,0,0,1-5.51,4.12Z"/><path class="cls-3" d="M722.58,348.28a3.32,3.32,0,0,1,1.09-4.53,3.17,3.17,0,0,1,4.68.74,3.42,3.42,0,0,1-5.68,3.79Z"/><path class="cls-3" d="M728.91,357.84a3.45,3.45,0,0,1,5.87-3.6,3.23,3.23,0,0,1-1.25,4.6,3.16,3.16,0,0,1-4.62-1Z"/><path class="cls-3" d="M734.59,367.43A3.15,3.15,0,0,1,736,363a3.25,3.25,0,0,1,4.62,1.15,3.16,3.16,0,0,1-1.34,4.44,3.21,3.21,0,0,1-4.68-1.15Z"/><path class="cls-3" d="M739.91,377.33a3.19,3.19,0,0,1,1.55-4.41,3.33,3.33,0,0,1,4.62,1.32,3.46,3.46,0,0,1-6.17,3.09Z"/><path class="cls-3" d="M744.87,387.4a3.13,3.13,0,0,1,1.77-4.25,3.19,3.19,0,0,1,4.47,1.48,3.23,3.23,0,0,1-1.79,4.38,3.15,3.15,0,0,1-4.45-1.54Z"/><path class="cls-3" d="M749.32,397.79a3.28,3.28,0,0,1,2-4.25,3.24,3.24,0,1,1-1.86,4.31Z"/><path class="cls-3" d="M753.47,408.28a3.43,3.43,0,0,1,6.48-2.22,3.42,3.42,0,0,1-6.43,2.28Z"/><path class="cls-3" d="M757,418.86a3.48,3.48,0,0,1,6.65-2,3.31,3.31,0,0,1-2.31,4.08c-1.93.61-3.69-.13-4.24-2Z"/><path class="cls-3" d="M760.2,429.86a3.38,3.38,0,0,1,2.59-4,3.27,3.27,0,0,1,4.11,2.32,3.1,3.1,0,0,1-2.42,3.92,3,3,0,0,1-4.14-2.22Z"/><path class="cls-3" d="M762.85,440.6a3.34,3.34,0,0,1,2.72-3.86,3.27,3.27,0,1,1,1.48,6.37,3.27,3.27,0,0,1-4.12-2.47Z"/><path class="cls-3" d="M765.21,451.77A3.19,3.19,0,0,1,768,448a3.25,3.25,0,1,1,1.09,6.4,3.18,3.18,0,0,1-3.89-2.63Z"/><path class="cls-3" d="M767.05,462.77A3.08,3.08,0,0,1,770,459.2a3.26,3.26,0,0,1,3.92,2.7,3.32,3.32,0,0,1-3,3.73,3.13,3.13,0,0,1-3.78-2.8Z"/><path class="cls-3" d="M768.3,474a3.4,3.4,0,0,1,3.17-3.54,3.28,3.28,0,0,1,3.72,3,3.47,3.47,0,0,1-6.89.61Z"/><path class="cls-3" d="M769.2,485.38a3.13,3.13,0,0,1,3.2-3.38,3.25,3.25,0,0,1,3.62,3.06c.16,1.9-1.24,3.25-3.26,3.44a3.15,3.15,0,0,1-3.56-3.09Z"/><path class="cls-3" d="M769.61,496.61a3.14,3.14,0,0,1,3.37-3.19,3.17,3.17,0,0,1,3.46,3.19,3.1,3.1,0,0,1-3.39,3.31,3.24,3.24,0,0,1-3.44-3.25Z"/><path class="cls-3" d="M769.52,507.74a3.31,3.31,0,0,1,3.49-3.16,3.37,3.37,0,0,1,3.41,3.41,3.3,3.3,0,0,1-3.55,3.16,3.24,3.24,0,0,1-3.35-3.38Z"/><path class="cls-3" d="M769,518.93a3.2,3.2,0,0,1,3.63-2.93,3.26,3.26,0,0,1,3.19,3.48,3.21,3.21,0,0,1-3.67,3A3.15,3.15,0,0,1,769,519Z"/><path class="cls-3" d="M768,530.25a3.17,3.17,0,0,1,3.78-2.73,3.08,3.08,0,0,1,3,3.6,3.4,3.4,0,0,1-6.75-.77Z"/><path class="cls-3" d="M766.58,541.45a3.22,3.22,0,0,1,3.86-2.64,3.28,3.28,0,0,1,2.86,3.8,3.41,3.41,0,0,1-6.72-1.1Z"/><path class="cls-3" d="M764.62,552.45a3.27,3.27,0,0,1,4-2.42,3.2,3.2,0,0,1,2.72,3.9,3.11,3.11,0,0,1-4,2.48,3.18,3.18,0,0,1-2.75-3.87Z"/><path class="cls-3" d="M762.3,563.55a3.11,3.11,0,0,1,4-2.29,3.33,3.33,0,0,1,2.66,4,3.1,3.1,0,0,1-4.09,2.32,3.15,3.15,0,0,1-2.64-3.93Z"/><path class="cls-3" d="M759.39,574.48a3.22,3.22,0,0,1,4.12-2.12,3.26,3.26,0,1,1-1.71,6.27,3.23,3.23,0,0,1-2.41-4.12Z"/><path class="cls-3" d="M756.11,585.23c.53-1.84,2.46-2.51,4.28-2a3.19,3.19,0,0,1,2.22,4.15,3.15,3.15,0,0,1-4.2,2,3.24,3.24,0,0,1-2.3-4.21Z"/><path class="cls-3" d="M752.36,595.87a3.23,3.23,0,0,1,4.28-1.77,3.3,3.3,0,0,1,2.09,4.35,3.23,3.23,0,0,1-4.36,1.8,3.18,3.18,0,0,1-2-4.28Z"/><path class="cls-3" d="M748.26,606.23a3.13,3.13,0,0,1,4.31-1.61,3.24,3.24,0,0,1,1.92,4.35,3.14,3.14,0,0,1-4.39,1.67,3.28,3.28,0,0,1-1.93-4.41Z"/><path class="cls-3" d="M743.6,616.53a3.15,3.15,0,0,1,4.45-1.42,3.19,3.19,0,0,1,1.64,4.44c-.74,1.7-2.6,2.31-4.52,1.44a3.2,3.2,0,0,1-1.62-4.43Z"/><path class="cls-3" d="M738.58,626.56a3.11,3.11,0,0,1,4.46-1.19,3.24,3.24,0,1,1-4.56,1.25Z"/><path class="cls-3" d="M733.11,636.34c.87-1.58,2.8-2,4.57-1a3.25,3.25,0,0,1,1.29,4.54,3.12,3.12,0,0,1-4.51,1.06,3.22,3.22,0,0,1-1.35-4.57Z"/><path class="cls-3" d="M727.16,646.09a3.28,3.28,0,0,1,4.66-.81,3.23,3.23,0,0,1,1.08,4.57,3.43,3.43,0,0,1-5.75-3.73Z"/><path class="cls-3" d="M721,655.35a3.42,3.42,0,0,1,5.5,4,3,3,0,0,1-4.56.68,3.27,3.27,0,0,1-.94-4.7Z"/><path class="cls-3" d="M714.28,664.52a3.15,3.15,0,0,1,4.61-.42,3.3,3.3,0,0,1,.81,4.66,3.26,3.26,0,0,1-4.76.55,3.33,3.33,0,0,1-.74-4.76Z"/><path class="cls-3" d="M707.36,673.2a3.43,3.43,0,0,1,5.17,4.47c-1.15,1.58-3.17,1.64-4.75.33a3.25,3.25,0,0,1-.48-4.73Z"/><path class="cls-3" d="M699.85,681.86a3.31,3.31,0,0,1,4.76-.1,3.27,3.27,0,1,1-4.4,4.82,3.11,3.11,0,0,1-.36-4.69Z"/><path class="cls-3" d="M692.12,690.06a3.16,3.16,0,0,1,4.68.16A3.24,3.24,0,0,1,697,695a3.49,3.49,0,0,1-5-4.86Z"/><path class="cls-3" d="M684.09,697.85a3.2,3.2,0,0,1,4.71.35,3.11,3.11,0,0,1,0,4.68,3.17,3.17,0,0,1-4.7-.26,3.24,3.24,0,0,1,0-4.77Z"/><path class="cls-3" d="M675.79,705.39a3.1,3.1,0,0,1,4.57.54,3.22,3.22,0,0,1-.29,4.76,3.06,3.06,0,0,1-4.57-.48,3.26,3.26,0,0,1,.18-4.79Z"/><path class="cls-3" d="M667,712.59a3.31,3.31,0,0,1,4.69.74,3.26,3.26,0,0,1-.53,4.73,3.13,3.13,0,0,1-4.6-.71,3.21,3.21,0,0,1,.44-4.69Z"/><path class="cls-3" d="M658.13,719.31a3.21,3.21,0,0,1,4.52.9,3.25,3.25,0,0,1-.58,4.73,3.13,3.13,0,0,1-4.58-.83,3.2,3.2,0,0,1,.59-4.76Z"/><path class="cls-3" d="M648.79,725.81a3.42,3.42,0,0,1,3.66,5.76,3.12,3.12,0,0,1-4.55-1.06,3.27,3.27,0,0,1,.76-4.67Z"/><path class="cls-3" d="M639.36,731.76a3.21,3.21,0,0,1,4.44,1.32,3.16,3.16,0,0,1-1,4.6c-1.58,1.09-3.46.48-4.54-1.19a3.21,3.21,0,0,1,1-4.63Z"/><path class="cls-3" d="M629.66,737.45a3.22,3.22,0,0,1,4.49,1.45,3.3,3.3,0,0,1-1.29,4.57c-1.65.9-3.45.26-4.55-1.45a3.25,3.25,0,0,1,1.35-4.57Z"/><path class="cls-3" d="M619.56,742.67a3.19,3.19,0,0,1,4.35,1.7,3.31,3.31,0,0,1-1.44,4.57,3.25,3.25,0,0,1-4.4-1.64,3.32,3.32,0,0,1,1.46-4.63Z"/><path class="cls-3" d="M609.61,747.43a3.14,3.14,0,0,1,4.23,1.8c.77,1.9.19,3.76-1.59,4.5a3.18,3.18,0,0,1-4.33-1.86,3.1,3.1,0,0,1,1.64-4.44Z"/><path class="cls-3" d="M599.12,751.74a3.29,3.29,0,0,1,4.22,2.09,3.25,3.25,0,0,1-1.77,4.4,3.3,3.3,0,0,1-4.3-2c-.69-1.9-.09-3.7,1.76-4.41Z"/><path class="cls-3" d="M588.51,755.76a3.12,3.12,0,0,1,4.1,2.19,3.22,3.22,0,1,1-6.08,2.09,3.13,3.13,0,0,1,2-4.28Z"/><path class="cls-3" d="M577.86,759.2a3.22,3.22,0,0,1,4,2.32,3.29,3.29,0,0,1-2.14,4.24c-1.85.55-3.42-.42-4.08-2.35a3.25,3.25,0,0,1,2.14-4.21Z"/><path class="cls-3" d="M567,762.22a3.21,3.21,0,0,1,4,2.51,3.34,3.34,0,0,1-2.3,4.18,3.26,3.26,0,0,1-4-2.57,3.22,3.22,0,0,1,2.3-4.12Z"/><path class="cls-3" d="M556.05,764.83a3.18,3.18,0,0,1,3.88,2.6,3.26,3.26,0,1,1-6.37,1.39,3.08,3.08,0,0,1,2.47-4Z"/><path class="cls-3" d="M544.9,766.86a3.45,3.45,0,0,1,1,6.81,3.16,3.16,0,0,1-3.7-2.86,3.22,3.22,0,0,1,2.68-3.95Z"/><path class="cls-3" d="M533.81,768.5a3.19,3.19,0,0,1,3.55,3,3.27,3.27,0,1,1-6.47.87,3.35,3.35,0,0,1,2.87-3.86Z"/><path class="cls-3" d="M522.56,769.72a3.2,3.2,0,0,1,3.48,3.12,3.29,3.29,0,0,1-3,3.7c-1.95.16-3.3-1.16-3.53-3.19a3.15,3.15,0,0,1,3-3.63Z"/><path class="cls-3" d="M511.4,770.39a3.28,3.28,0,0,1,3.36,3.28,3.22,3.22,0,0,1-3.15,3.54,3.42,3.42,0,0,1-.29-6.82Z"/><path class="cls-3" d="M500.05,770.59a3.45,3.45,0,0,1,.06,6.88,3.1,3.1,0,0,1-3.18-3.34,3.16,3.16,0,0,1,3.12-3.54Z"/><path class="cls-3" d="M489,770.39a3.11,3.11,0,0,1,3,3.54,3.17,3.17,0,0,1-3.38,3.28,3.42,3.42,0,0,1,.35-6.82Z"/><path class="cls-3" d="M477.61,769.72a3.41,3.41,0,0,1-.61,6.79,3.21,3.21,0,0,1-2.94-3.67,3.16,3.16,0,0,1,3.55-3.12Z"/><path class="cls-3" d="M466.66,768.56a3.44,3.44,0,0,1-1,6.79,3.43,3.43,0,0,1,.92-6.79Z"/><path class="cls-3" d="M455.53,766.92a3.19,3.19,0,0,1,2.54,3.89c-.39,2-1.87,3.19-3.75,2.86a3.15,3.15,0,0,1-2.63-3.92,3.19,3.19,0,0,1,3.76-2.83Z"/><path class="cls-3" d="M444.35,764.86a3.23,3.23,0,0,1,2.43,4,3.38,3.38,0,0,1-4,2.73,3.22,3.22,0,0,1-2.43-4c.42-1.93,1.9-3.15,3.83-2.7Z"/><path class="cls-3" d="M433.29,762.26a3.44,3.44,0,0,1-1.71,6.65,3.44,3.44,0,0,1,1.71-6.65Z"/><path class="cls-3" d="M422.59,759.3a3.19,3.19,0,0,1,2,4.18,3.31,3.31,0,0,1-4.15,2.35,3.11,3.11,0,0,1-2-4.22,3,3,0,0,1,4-2.31Z"/><path class="cls-3" d="M411.88,755.82a3.25,3.25,0,0,1,1.86,4.31,3.17,3.17,0,0,1-4.18,2.13,3.08,3.08,0,0,1-2-4.22,3.15,3.15,0,0,1,4.22-2.22Z"/><path class="cls-3" d="M401.26,751.87a3.23,3.23,0,0,1,1.64,4.44,3.16,3.16,0,0,1-4.27,2,3.45,3.45,0,0,1,2.54-6.4Z"/><path class="cls-3" d="M391,747.65a3.11,3.11,0,0,1,1.58,4.38,3.3,3.3,0,0,1-4.44,1.83,3.15,3.15,0,0,1-1.55-4.37,3.27,3.27,0,0,1,4.41-1.93Z"/><path class="cls-3" d="M380.81,742.83a3.43,3.43,0,0,1-3.09,6.11,3.06,3.06,0,0,1-1.39-4.44,3.16,3.16,0,0,1,4.44-1.67Z"/><path class="cls-3" d="M370.88,737.65a3.16,3.16,0,0,1,1.11,4.53,3.21,3.21,0,0,1-4.53,1.45,3.16,3.16,0,0,1-1.13-4.5c.95-1.74,2.77-2.48,4.44-1.48Z"/><path class="cls-3" d="M361,732a3.07,3.07,0,0,1,.93,4.5,3.17,3.17,0,0,1-4.55,1.29A3.45,3.45,0,0,1,361,732Z"/><path class="cls-3" d="M351.58,726a3.22,3.22,0,0,1,.74,4.63,3.16,3.16,0,0,1-4.61,1,3.06,3.06,0,0,1-.81-4.57,3.22,3.22,0,0,1,4.62-1.09Z"/><path class="cls-3" d="M342.19,719.54a3.11,3.11,0,0,1,.55,4.63,3.24,3.24,0,1,1-5.23-3.8,3.16,3.16,0,0,1,4.63-.9Z"/><path class="cls-3" d="M333.34,712.75a3.27,3.27,0,0,1,.34,4.73,3.14,3.14,0,0,1-4.65.61,3.09,3.09,0,0,1-.46-4.63,3.23,3.23,0,0,1,4.71-.71Z"/><path class="cls-3" d="M324.61,705.61a3.08,3.08,0,0,1,.11,4.63,3.18,3.18,0,0,1-4.69.49,3.13,3.13,0,0,1-.18-4.67,3.22,3.22,0,0,1,4.76-.55Z"/><path class="cls-3" d="M316.33,698.2a3.19,3.19,0,0,1-.08,4.68,3.23,3.23,0,0,1-4.67.25,3.43,3.43,0,0,1,4.67-5Z"/><path class="cls-3" d="M308.17,690.28a3.42,3.42,0,1,1-4.82,0,3.27,3.27,0,0,1,4.82-.06Z"/><path class="cls-3" d="M300.42,682.05a3.23,3.23,0,0,1-.42,4.63,3.25,3.25,0,1,1-4.39-4.79,3.19,3.19,0,0,1,4.76.13Z"/><path class="cls-3" d="M293,673.65c1.27,1.42.93,3.28-.54,4.64a3.26,3.26,0,1,1-4.15-5,3.13,3.13,0,0,1,4.69.38Z"/><path class="cls-3" d="M286,664.77c1.23,1.48.78,3.41-.82,4.6a3.24,3.24,0,1,1-3.94-5.14,3.09,3.09,0,0,1,4.67.48Z"/><path class="cls-3" d="M279.29,655.57a3.27,3.27,0,0,1-1,4.6,3.24,3.24,0,0,1-4.69-.7,3.12,3.12,0,0,1,.94-4.6,3.23,3.23,0,0,1,4.73.7Z"/><path class="cls-3" d="M273.06,646.34a3.12,3.12,0,0,1-1.15,4.47,3.18,3.18,0,0,1-4.64-.83,3.14,3.14,0,0,1,1.13-4.54c1.67-1.06,3.6-.83,4.58.81Z"/><path class="cls-3" d="M267.27,636.79a3.45,3.45,0,0,1-6,3.41,3.43,3.43,0,0,1,5.92-3.44Z"/><path class="cls-3" d="M261.68,626.85a3.16,3.16,0,0,1-1.52,4.37,3.33,3.33,0,0,1-4.64-1.25,3.28,3.28,0,0,1,1.57-4.5c1.8-.9,3.62-.55,4.54,1.32Z"/><path class="cls-3" d="M256.61,616.78a3.43,3.43,0,1,1-4.44-1.51,3.12,3.12,0,0,1,4.44,1.48Z"/><path class="cls-3" d="M252,606.52a3.19,3.19,0,0,1-2,4.25,3.14,3.14,0,0,1-4.39-1.61,3.2,3.2,0,0,1,1.85-4.34,3.15,3.15,0,0,1,4.45,1.64Z"/><path class="cls-3" d="M247.86,596.2a3.42,3.42,0,0,1-6.45,2.28,3.15,3.15,0,0,1,2-4.18,3.29,3.29,0,0,1,4.45,1.83Z"/><path class="cls-3" d="M244.05,585.48a3.43,3.43,0,0,1-6.52,2.09,3.22,3.22,0,0,1,2.3-4.18,3.17,3.17,0,0,1,4.22,2.06Z"/><path class="cls-3" d="M240.74,574.77a3.41,3.41,0,0,1-6.58,1.77,3.25,3.25,0,0,1,2.38-4,3.21,3.21,0,0,1,4.2,2.25Z"/><path class="cls-3" d="M237.86,563.9a3.16,3.16,0,0,1-2.51,3.89,3.34,3.34,0,0,1-4.15-2.41,3.22,3.22,0,0,1,2.6-3.93,3.13,3.13,0,0,1,4.06,2.35Z"/><path class="cls-3" d="M235.56,552.83a3.46,3.46,0,0,1-6.81,1.19,3.22,3.22,0,0,1,2.75-3.79c2-.32,3.62.55,4.06,2.48Z"/><path class="cls-3" d="M233.58,541.83c.32,1.8-.93,3.28-2.9,3.6a3.24,3.24,0,1,1-1-6.4,3.16,3.16,0,0,1,3.88,2.71Z"/><path class="cls-3" d="M232.11,530.64a3.26,3.26,0,0,1-3.07,3.54,3.13,3.13,0,0,1-3.71-2.87,3.06,3.06,0,0,1,3-3.63,3.19,3.19,0,0,1,3.78,2.89Z"/><path class="cls-3" d="M231.1,519.28a3.22,3.22,0,0,1-3.2,3.45,3.12,3.12,0,0,1-3.55-3.09,3,3,0,0,1,3.07-3.38c2-.1,3.59,1,3.68,3Z"/><path class="cls-3" d="M230.55,508.15a3.18,3.18,0,0,1-3.34,3.22,3.32,3.32,0,0,1-3.55-3.15,3.22,3.22,0,0,1,3.31-3.35,3.19,3.19,0,0,1,3.58,3.19Z"/><path class="cls-3" d="M230.52,496.77a3.46,3.46,0,0,1-6.9-.23,3.46,3.46,0,0,1,6.9.16Z"/><path class="cls-3" d="M230.92,485.48a3.24,3.24,0,0,1-3.66,3,3.3,3.3,0,0,1-3.22-3.44,3.2,3.2,0,0,1,3.59-3.06,3.25,3.25,0,0,1,3.29,3.41Z"/><path class="cls-3" d="M231.71,474.41a3.18,3.18,0,0,1-3.68,2.8,3.3,3.3,0,0,1-3.15-3.63,3.21,3.21,0,0,1,3.78-2.84,3.17,3.17,0,0,1,3.05,3.61Z"/><path class="cls-3" d="M233,463.15a3.17,3.17,0,0,1-3.78,2.64,3.25,3.25,0,1,1,.87-6.43,3.19,3.19,0,0,1,2.91,3.79Z"/><path class="cls-3" d="M234.86,452.06a3.27,3.27,0,0,1-4,2.51,3.21,3.21,0,0,1-2.8-3.8,3.17,3.17,0,0,1,3.94-2.61,3.26,3.26,0,0,1,2.84,3.86Z"/><path class="cls-3" d="M237.12,440.93c-.42,1.86-2.11,2.76-4.11,2.34a3.28,3.28,0,1,1,4.11-2.38Z"/><path class="cls-3" d="M239.8,430.18a3.28,3.28,0,0,1-4.12,2.16,3.22,3.22,0,0,1-2.54-4.09,3.16,3.16,0,0,1,4.09-2.15,3.2,3.2,0,0,1,2.57,4Z"/><path class="cls-3" d="M243,419.21a3.3,3.3,0,0,1-4.26,2,3.27,3.27,0,1,1,4.26-2.06Z"/><path class="cls-3" d="M246.49,408.63a3.22,3.22,0,0,1-4.31,1.8,3.26,3.26,0,1,1,2.24-6.11c1.83.71,2.88,2.32,2.07,4.28Z"/><path class="cls-3" d="M250.58,398.05a3.12,3.12,0,0,1-4.33,1.61,3.18,3.18,0,0,1-2-4.31,3.23,3.23,0,0,1,4.39-1.68,3.2,3.2,0,0,1,1.95,4.35Z"/><path class="cls-3" d="M255.1,387.66a3.14,3.14,0,0,1-4.43,1.45,3.27,3.27,0,0,1-1.78-4.41,3.44,3.44,0,0,1,6.21,3Z"/><path class="cls-3" d="M260,377.59c-.74,1.64-2.68,2.09-4.45,1.25a3.22,3.22,0,0,1-1.53-4.5c.87-1.67,2.64-2.15,4.52-1.32a3.33,3.33,0,0,1,1.57,4.54Z"/><path class="cls-3" d="M265.33,367.71a3.18,3.18,0,0,1-4.55,1,3.26,3.26,0,0,1-1.36-4.53,3.3,3.3,0,0,1,4.65-1.1,3.26,3.26,0,0,1,1.34,4.54Z"/><path class="cls-3" d="M271.07,358a3.17,3.17,0,0,1-4.6.94,3.36,3.36,0,0,1-1.24-4.6,3.3,3.3,0,0,1,4.73-.94,3.25,3.25,0,0,1,1.16,4.57Z"/><path class="cls-3" d="M277.1,348.74a3,3,0,1,1,.06-.07Z"/><path class="cls-3" d="M283.78,339.47a3.45,3.45,0,0,1-5.47-4.18,3.07,3.07,0,0,1,4.64-.55,3.19,3.19,0,0,1,.83,4.67Z"/><path class="cls-3" d="M290.74,330.53a3.2,3.2,0,0,1-4.63.29,3.24,3.24,0,1,1,4-5.05,3.19,3.19,0,0,1,.6,4.66Z"/><path class="cls-3" d="M297.9,321.94c-1.18,1.48-3.13,1.48-4.64.16a3.19,3.19,0,0,1-.43-4.73,3.12,3.12,0,0,1,4.66-.16,3.15,3.15,0,0,1,.47,4.73Z"/><path class="cls-3" d="M305.53,313.61a3,3,0,0,1-4.61,0,3.25,3.25,0,0,1-.19-4.8,3.29,3.29,0,0,1,4.74.07,3.35,3.35,0,0,1,.18,4.76Z"/><path class="cls-3" d="M313.42,305.83a3.26,3.26,0,0,1-4.7-.33,3.43,3.43,0,0,1,0-4.79,3.28,3.28,0,0,1,4.76.29,3.25,3.25,0,0,1,0,4.76Z"/></svg>